<svg width="92" height="93" viewBox="0 0 92 93" fill="none" xmlns="http://www.w3.org/2000/svg">
<path d="M25.7312 52.2463L11.5 63.7463V17.7463C11.5 16.9838 11.8029 16.2526 12.3421 15.7134C12.8812 15.1742 13.6125 14.8713 14.375 14.8713H60.375C61.1375 14.8713 61.8688 15.1742 62.4079 15.7134C62.9471 16.2526 63.25 16.9838 63.25 17.7463V49.3713C63.25 50.1338 62.9471 50.8651 62.4079 51.4043C61.8688 51.9434 61.1375 52.2463 60.375 52.2463H25.7312Z" stroke="#FFB545" stroke-width="3" stroke-linecap="round" stroke-linejoin="round"/>
<path d="M28.75 52.2463V66.6213C28.75 67.3838 29.0529 68.1151 29.5921 68.6543C30.1312 69.1934 30.8625 69.4963 31.625 69.4963H66.2687L80.5 80.9963V34.9963C80.5 34.2338 80.1971 33.5026 79.6579 32.9634C79.1188 32.4242 78.3875 32.1213 77.625 32.1213H63.25" stroke="#FFB545" stroke-width="3" stroke-linecap="round" stroke-linejoin="round"/>
</svg>
