<svg width="66" height="66" viewBox="0 0 66 66" fill="none" xmlns="http://www.w3.org/2000/svg">
<path d="M23.75 28.9062C24.1312 28.6825 24.4472 28.3628 24.6665 27.9791C24.8858 27.5953 25.0008 27.1608 25 26.7187V4.21874C25.0035 3.81603 24.9097 3.41843 24.7265 3.05978C24.5433 2.70113 24.2761 2.39205 23.9478 2.15883C23.6194 1.92562 23.2396 1.77519 22.8406 1.72033C22.4417 1.66547 22.0353 1.70781 21.6562 1.84374C15.327 4.0984 9.84909 8.25398 5.97244 13.7417C2.09579 19.2294 0.00980553 25.7811 0 32.5C0.00338527 34.4909 0.181148 36.4776 0.53125 38.4375C0.606365 38.829 0.772887 39.1972 1.01726 39.5122C1.26163 39.8272 1.57693 40.08 1.9375 40.25C2.27024 40.4069 2.63223 40.492 3 40.5C3.43964 40.4973 3.87081 40.3787 4.25 40.1562L23.75 28.9062ZM20 7.99999V25.2812L5.03125 33.9375C5 33.4375 5 32.9687 5 32.5C5.0096 27.4326 6.41439 22.4658 9.06034 18.1441C11.7063 13.8224 15.4912 10.3127 20 7.99999Z" fill="#FFB545"/>
<path d="M60.72 16.375C60.6877 16.3401 60.666 16.2968 60.6575 16.25L60.5325 16.0938C57.6725 11.1969 53.5798 7.13446 48.6619 4.31088C43.7439 1.4873 38.1721 0.00102219 32.5013 0C31.8382 0 31.2023 0.263392 30.7335 0.732233C30.2647 1.20107 30.0013 1.83696 30.0013 2.5V31.0625L5.28251 45.3438C4.99439 45.503 4.74103 45.7182 4.53732 45.9768C4.33361 46.2353 4.18367 46.532 4.09632 46.8494C4.00897 47.1668 3.98597 47.4984 4.02868 47.8248C4.07139 48.1512 4.17894 48.4658 4.34501 48.75V48.8125L4.43876 48.9688C8.04359 55.1396 13.5819 59.9502 20.1965 62.656C26.8111 65.3618 34.1332 65.8119 41.0294 63.9366C47.9256 62.0613 54.0114 57.9652 58.3449 52.2823C62.6784 46.5994 65.0178 39.6466 65.0013 32.5C65.0089 26.8431 63.5327 21.2831 60.72 16.375Z" fill="#625FFB"/>
</svg>
