<svg width="80" height="58" viewBox="0 0 80 58" fill="none" xmlns="http://www.w3.org/2000/svg">
<path d="M19.3549 30.9341C19.3592 31.2738 19.2955 31.6109 19.1673 31.9256C19.0391 32.2403 18.8492 32.5262 18.6087 32.7664C18.3682 33.0067 18.082 33.1964 17.7669 33.3244C17.4519 33.4524 17.1144 33.5161 16.7743 33.5118H2.58074C2.10132 33.5079 1.63197 33.374 1.22288 33.1242C0.813782 32.8745 0.480325 32.5184 0.258163 32.0941C0.0515747 31.6619 -0.0335383 31.1818 0.0119167 30.7051C0.0573716 30.2283 0.231685 29.7729 0.516227 29.3875C2.80005 26.3253 5.84755 23.9145 9.35493 22.3954C7.84781 21.0174 6.68986 19.3016 5.97638 17.3892C5.2629 15.4768 5.01429 13.4224 5.25101 11.3953C5.48772 9.36817 6.20301 7.42617 7.33798 5.72913C8.47295 4.03208 9.99516 2.62852 11.7793 1.63396C13.5635 0.639397 15.5586 0.0822749 17.6005 0.00843863C19.6424 -0.0653976 21.6726 0.346165 23.5241 1.20926C25.3756 2.07235 26.9954 3.36229 28.2503 4.97291C29.5051 6.58354 30.3591 8.4688 30.742 10.4735C30.8374 10.9957 30.7712 11.5344 30.5522 12.018C30.3332 12.5016 29.9718 12.907 29.5162 13.1801C25.344 15.6513 22.1709 19.505 20.5485 24.0709C19.7487 26.2705 19.3446 28.594 19.3549 30.9341ZM79.4839 29.3875C77.2001 26.3253 74.1525 23.9145 70.6452 22.3954C72.1523 21.0174 73.3103 19.3016 74.0237 17.3892C74.7372 15.4768 74.9858 13.4224 74.7491 11.3953C74.5124 9.36817 73.7971 7.42617 72.6621 5.72913C71.5271 4.03208 70.0049 2.62852 68.2208 1.63396C66.4366 0.639397 64.4415 0.0822749 62.3996 0.00843863C60.3577 -0.0653976 58.3275 0.346165 56.476 1.20926C54.6245 2.07235 53.0046 3.36229 51.7498 4.97291C50.4949 6.58354 49.6409 8.4688 49.2581 10.4735C49.1627 10.9957 49.2289 11.5344 49.4479 12.018C49.6669 12.5016 50.0283 12.907 50.4839 13.1801C54.6615 15.645 57.8365 19.5009 59.4516 24.0709C60.2514 26.2705 60.6555 28.594 60.6452 30.9341C60.6408 31.2738 60.7046 31.6109 60.8328 31.9256C60.961 32.2403 61.1509 32.5262 61.3914 32.7664C61.6319 33.0067 61.9181 33.1964 62.2331 33.3244C62.5482 33.4524 62.8857 33.5161 63.2258 33.5118H77.4194C77.8986 33.5118 78.3684 33.3785 78.7761 33.1268C79.1838 32.8751 79.5132 32.5151 79.7276 32.0869C79.9419 31.6587 80.0326 31.1794 79.9896 30.7026C79.9465 30.2258 79.7714 29.7704 79.4839 29.3875ZM49.4194 43.2104C51.9877 41.2441 53.8748 38.5235 54.8154 35.4308C55.756 32.338 55.7029 29.0287 54.6635 25.9676C53.6242 22.9066 51.6508 20.2478 49.0207 18.3647C46.3906 16.4816 43.236 15.4689 40 15.4689C36.7641 15.4689 33.6094 16.4816 30.9793 18.3647C28.3493 20.2478 26.3759 22.9066 25.3366 25.9676C24.2972 29.0287 24.2441 32.338 25.1847 35.4308C26.1253 38.5235 28.0124 41.2441 30.5807 43.2104C25.5631 45.4355 21.4952 49.3618 19.0968 54.2946C18.906 54.6866 18.8206 55.1214 18.8488 55.5564C18.8771 55.9914 19.0182 56.4115 19.2581 56.7756C19.4815 57.1491 19.7981 57.4583 20.1769 57.6729C20.5558 57.8875 20.9839 58.0002 21.4194 58H58.5807C59.0162 58.0002 59.4443 57.8875 59.8232 57.6729C60.202 57.4583 60.5186 57.1491 60.742 56.7756C60.9819 56.4115 61.123 55.9914 61.1513 55.5564C61.1795 55.1214 61.0941 54.6866 60.9033 54.2946C58.5049 49.3618 54.437 45.4355 49.4194 43.2104Z" fill="#625FFB"/>
<path d="M19.3549 30.9346C19.3592 31.2743 19.2955 31.6114 19.1673 31.9261C19.0391 32.2408 18.8492 32.5267 18.6087 32.7669C18.3682 33.0072 18.082 33.1969 17.7669 33.3249C17.4519 33.4529 17.1144 33.5166 16.7743 33.5123H2.58074C2.10132 33.5084 1.63197 33.3744 1.22288 33.1247C0.813784 32.875 0.480329 32.5189 0.258167 32.0945C0.0515786 31.6624 -0.0335386 31.1823 0.0119163 30.7055C0.0573713 30.2288 0.231689 29.7734 0.516231 29.3879C2.80006 26.3257 5.84756 23.9149 9.35493 22.3959C7.84781 21.0179 6.68986 19.3021 5.97638 17.3897C5.2629 15.4773 5.01429 13.4229 5.25101 11.3958C5.48773 9.36867 6.20301 7.42666 7.33798 5.72962C8.47295 4.03257 9.99517 2.62901 11.7793 1.63445C13.5635 0.639888 15.5586 0.0827631 17.6005 0.00892689C19.6424 -0.0649093 21.6726 0.346655 23.5241 1.20975C25.3756 2.07284 26.9954 3.36278 28.2503 4.9734C29.5052 6.58403 30.3592 8.46929 30.742 10.474C30.8374 10.9961 30.7712 11.5349 30.5522 12.0185C30.3332 12.5021 29.9718 12.9075 29.5162 13.1806C25.344 15.6518 22.1709 19.5055 20.5485 24.0714C19.7487 26.271 19.3446 28.5945 19.3549 30.9346Z" fill="#FFB545"/>
</svg>
