<svg width="80" height="79" viewBox="0 0 80 79" fill="none" xmlns="http://www.w3.org/2000/svg">
<path d="M72.5 18H22.5C20.5134 18.0084 18.6105 18.8144 17.2058 20.2426C15.801 21.6707 15.0082 23.6053 15 25.625V61.2083C15.0082 63.228 15.801 65.1626 17.2058 66.5908C18.6105 68.0189 20.5134 68.825 22.5 68.8333H45V73.9167H37.5C36.837 73.9167 36.2011 74.1844 35.7322 74.6611C35.2634 75.1378 35 75.7842 35 76.4583C35 77.1324 35.2634 77.7789 35.7322 78.2556C36.2011 78.7322 36.837 79 37.5 79H57.5C58.163 79 58.7989 78.7322 59.2678 78.2556C59.7366 77.7789 60 77.1324 60 76.4583C60 75.7842 59.7366 75.1378 59.2678 74.6611C58.7989 74.1844 58.163 73.9167 57.5 73.9167H50V68.8333H72.5C74.4866 68.825 76.3895 68.0189 77.7942 66.5908C79.199 65.1626 79.9918 63.228 80 61.2083V25.625C79.9918 23.6053 79.199 21.6707 77.7942 20.2426C76.3895 18.8144 74.4866 18.0084 72.5 18ZM72.5 63.75H22.5C21.837 63.75 21.2011 63.4822 20.7322 63.0056C20.2634 62.5289 20 61.8824 20 61.2083V56.125H75V61.2083C75 61.8824 74.7366 62.5289 74.2678 63.0056C73.7989 63.4822 73.163 63.75 72.5 63.75Z" fill="#625FFB"/>
<path d="M28.7199 8.41583L28.7134 8.41195L28.7069 8.40813L17.7905 1.99334C17.2492 1.67172 16.6319 1.5 16 1.5C15.3681 1.5 14.7508 1.67172 14.2095 1.99334L3.29305 8.40813L3.28655 8.41195L3.28009 8.41583C2.73062 8.74619 2.28154 9.21655 1.9719 9.77387L3.26553 10.4926L1.97189 9.77387C1.66244 10.3309 1.50112 10.9583 1.5 11.594V11.5967L1.5 24.4033L1.5 24.406C1.50112 25.0417 1.66244 25.6691 1.9719 26.2261C2.28154 26.7835 2.73062 27.2538 3.28009 27.5842L3.28655 27.5881L3.29305 27.5919L14.2095 34.0067C14.7508 34.3283 15.3681 34.5 16 34.5C16.6319 34.5 17.2492 34.3283 17.7905 34.0067L28.7069 27.5919L28.7134 27.5881L28.7199 27.5842C29.2694 27.2538 29.7185 26.7835 30.0281 26.2261C30.3376 25.6691 30.4989 25.0417 30.5 24.406V24.4033L30.5 11.5967L30.5 11.594C30.4989 10.9583 30.3376 10.3309 30.0281 9.77387C29.7185 9.21655 29.2694 8.74619 28.7199 8.41583ZM16 21.3736C15.3849 21.3736 14.7783 21.184 14.2567 20.821C13.7342 20.4574 13.3181 19.9342 13.07 19.3106C12.8218 18.6867 12.756 17.9968 12.8833 17.3306C13.0105 16.6647 13.3231 16.061 13.7727 15.5928C14.2216 15.1253 14.7861 14.8142 15.3912 14.6889C15.9958 14.5636 16.6233 14.6273 17.1969 14.8747C17.7712 15.1225 18.272 15.5464 18.6288 16.1024L19.8913 15.2924L18.6288 16.1024C18.986 16.6591 19.18 17.3196 19.18 18C19.18 18.9139 18.8308 19.7788 18.2273 20.4072C17.6258 21.0336 16.8233 21.3736 16 21.3736Z" fill="#FFB545" stroke="#F8F8F8" stroke-width="3"/>
</svg>
