<svg width="1049" height="408" viewBox="0 0 1049 408" fill="none" xmlns="http://www.w3.org/2000/svg">
<path d="M44.689 8C44.689 12.4183 48.2708 16 52.689 16C57.1073 16 60.689 12.4183 60.689 8C60.689 3.58172 57.1073 0 52.689 0C48.2708 0 44.689 3.58172 44.689 8ZM247.683 405.998L247.68 407.498L247.683 405.998ZM842.803 113.7L842.666 115.194L842.803 113.7ZM1009.41 380.016L1026.25 375.959L1014.32 363.405L1009.41 380.016ZM51.3476 7.32876C50.6077 8.80737 49.8694 10.3024 49.1332 11.8133L51.8301 13.1274C52.5617 11.6259 53.2953 10.1404 54.0305 8.67124L51.3476 7.32876ZM44.7613 21.0291C43.3663 24.0496 41.9826 27.1248 40.6136 30.2507L43.3616 31.4542C44.7227 28.3464 46.0982 25.2894 47.4848 22.2869L44.7613 21.0291ZM36.6378 39.5758C35.3491 42.6815 34.0773 45.8309 32.8254 49.0205L35.618 50.1165C36.8628 46.945 38.1274 43.8135 39.4087 40.7255L36.6378 39.5758ZM29.2182 58.4762C28.0513 61.6251 26.9058 64.8082 25.7846 68.0226L28.6172 69.0107C29.732 65.8147 30.871 62.6496 32.0313 59.5186L29.2182 58.4762ZM22.5258 77.6653C21.4825 80.8553 20.4648 84.0719 19.4753 87.3124L22.3445 88.1886C23.3281 84.9672 24.3399 81.7694 25.3772 78.5979L22.5258 77.6653ZM16.6072 97.0564C15.6877 100.302 14.7984 103.567 13.9416 106.851L16.8444 107.608C17.6958 104.345 18.5797 101.1 19.4935 97.8742L16.6072 97.0564ZM11.4852 116.694C10.7022 119.983 9.95358 123.286 9.24197 126.602L12.1752 127.232C12.882 123.938 13.6256 120.656 14.4036 117.389L11.4852 116.694ZM7.22715 136.547C6.59397 139.872 5.99991 143.206 5.44738 146.546L8.40717 147.036C8.95564 143.72 9.54544 140.41 10.1742 137.109L7.22715 136.547ZM3.91718 156.583C3.44923 159.941 3.02542 163.303 2.64823 166.666L5.62954 167C6.00367 163.664 6.42411 160.329 6.88846 156.997L3.91718 156.583ZM1.65775 176.77C1.37465 180.154 1.14121 183.536 0.959946 186.914L3.95564 187.074C4.13526 183.727 4.36663 180.375 4.6473 177.02L1.65775 176.77ZM0.574289 197.072C0.499738 200.465 0.48073 203.851 0.519843 207.227L3.51964 207.192C3.48093 203.85 3.49973 200.498 3.57357 197.138L0.574289 197.072ZM0.818086 217.407C0.978983 220.801 1.2021 224.183 1.49013 227.548L4.47921 227.293C4.19451 223.966 3.97387 220.622 3.81472 217.264L0.818086 217.407ZM2.56101 237.669C2.98864 241.048 3.48587 244.408 4.0555 247.745L7.01273 247.241C6.45057 243.947 5.95964 240.63 5.53727 237.293L2.56101 237.669ZM5.99344 257.728C6.72019 261.058 7.52406 264.362 8.40796 267.636L11.3043 266.854C10.4334 263.628 9.64107 260.372 8.92444 257.089L5.99344 257.728ZM11.3139 277.402C12.3684 280.636 13.5069 283.836 14.7325 287L17.5299 285.917C16.3245 282.804 15.2041 279.655 14.1661 276.472L11.3139 277.402ZM18.6845 296.405C20.0898 299.498 21.5853 302.55 23.1742 305.56L25.8272 304.159C24.2665 301.203 22.797 298.204 21.4158 295.164L18.6845 296.405ZM28.2151 314.442C29.9754 317.333 31.8299 320.178 33.7815 322.975L36.2416 321.258C34.3261 318.513 32.5057 315.72 30.7775 312.882L28.2151 314.442ZM39.8875 331.159C41.9947 333.805 44.1981 336.4 46.5002 338.941L48.7236 336.927C46.4643 334.433 44.302 331.886 42.234 329.29L39.8875 331.159ZM53.5636 346.264C55.9895 348.627 58.5108 350.937 61.1299 353.191L63.0865 350.917C60.5141 348.703 58.0384 346.435 55.6569 344.115L53.5636 346.264ZM69.0099 359.572C71.6843 361.611 74.4493 363.596 77.3067 365.526L78.9856 363.039C76.1752 361.142 73.4569 359.19 70.8285 357.187L69.0099 359.572ZM85.9093 370.996C88.7741 372.71 91.7228 374.373 94.7571 375.982L96.1628 373.332C93.1735 371.747 90.2698 370.109 87.4498 368.421L85.9093 370.996ZM103.919 380.555C106.924 381.964 110.005 383.325 113.165 384.636L114.314 381.864C111.196 380.571 108.156 379.229 105.193 377.839L103.919 380.555ZM122.722 388.357C125.831 389.492 129.011 390.581 132.262 391.623L133.178 388.767C129.964 387.736 126.822 386.66 123.75 385.539L122.722 388.357ZM142.062 394.561C145.259 395.455 148.52 396.307 151.847 397.114L152.554 394.198C149.261 393.399 146.033 392.557 142.87 391.672L142.062 394.561ZM161.76 399.348C165.043 400.033 168.385 400.676 171.789 401.279L172.311 398.325C168.938 397.728 165.625 397.089 162.372 396.411L161.76 399.348ZM181.71 402.891C185.072 403.389 188.491 403.849 191.967 404.269L192.327 401.291C188.878 400.874 185.485 400.418 182.15 399.923L181.71 402.891ZM201.865 405.344C205.198 405.665 208.58 405.951 212.012 406.202L212.231 403.21C208.821 402.961 205.462 402.677 202.153 402.358L201.865 405.344ZM222.226 406.835C225.509 407.003 228.835 407.139 232.207 407.244L232.3 404.246C228.948 404.141 225.641 404.006 222.379 403.839L222.226 406.835ZM242.455 407.462C244.185 407.482 245.927 407.494 247.68 407.498L247.686 404.498C245.943 404.494 244.21 404.482 242.49 404.462L242.455 407.462ZM247.68 407.498C249.393 407.502 251.098 407.5 252.794 407.492L252.78 404.492C251.091 404.5 249.393 404.502 247.686 404.498L247.68 407.498ZM262.873 407.372C266.199 407.309 269.493 407.222 272.753 407.112L272.652 404.114C269.406 404.223 266.128 404.31 262.816 404.373L262.873 407.372ZM282.437 406.715C285.842 406.549 289.21 406.359 292.543 406.143L292.349 403.149C289.032 403.364 285.68 403.554 282.292 403.718L282.437 406.715ZM302.498 405.415C305.78 405.147 309.027 404.855 312.238 404.538L311.944 401.553C308.749 401.868 305.52 402.159 302.254 402.425L302.498 405.415ZM322.13 403.473C325.489 403.081 328.808 402.661 332.089 402.215L331.685 399.242C328.423 399.686 325.122 400.103 321.782 400.493L322.13 403.473ZM341.816 400.797C345.108 400.285 348.361 399.745 351.574 399.179L351.053 396.224C347.86 396.787 344.627 397.324 341.355 397.833L341.816 400.797ZM361.453 397.329C364.705 396.685 367.915 396.012 371.085 395.312L370.438 392.383C367.289 393.078 364.1 393.746 360.87 394.387L361.453 397.329ZM380.747 393.065C384.027 392.263 387.262 391.431 390.454 390.571L389.673 387.674C386.504 388.528 383.292 389.354 380.034 390.151L380.747 393.065ZM399.899 387.903C403.131 386.949 406.317 385.964 409.459 384.95L408.537 382.095C405.42 383.101 402.258 384.079 399.05 385.026L399.899 387.903ZM418.897 381.77C422.012 380.676 425.082 379.552 428.108 378.4L427.041 375.597C424.039 376.739 420.994 377.854 417.903 378.94L418.897 381.77ZM437.469 374.692C440.542 373.426 443.568 372.131 446.549 370.807L445.331 368.065C442.375 369.378 439.374 370.663 436.326 371.918L437.469 374.692ZM455.598 366.638C458.62 365.194 461.594 363.721 464.522 362.221L463.154 359.551C460.251 361.039 457.302 362.499 454.305 363.931L455.598 366.638ZM473.247 357.594C476.198 355.976 479.1 354.33 481.956 352.657L480.44 350.069C477.608 351.727 474.73 353.359 471.805 354.964L473.247 357.594ZM490.387 347.56C493.242 345.78 496.051 343.972 498.814 342.14L497.156 339.64C494.416 341.457 491.631 343.249 488.799 345.015L490.387 347.56ZM506.985 336.56C509.724 334.636 512.417 332.688 515.067 330.717L513.277 328.31C510.648 330.264 507.976 332.197 505.26 334.106L506.985 336.56ZM522.951 324.697C525.576 322.639 528.158 320.56 530.701 318.463L528.792 316.148C526.268 318.23 523.705 320.294 521.1 322.336L522.951 324.697ZM538.286 312.051C540.803 309.873 543.281 307.678 545.723 305.468L543.709 303.244C541.284 305.44 538.823 307.62 536.323 309.783L538.286 312.051ZM553.018 298.723C555.435 296.442 557.817 294.147 560.167 291.842L558.067 289.7C555.73 291.992 553.361 294.274 550.958 296.542L553.018 298.723ZM567.196 284.823C569.526 282.456 571.826 280.081 574.098 277.7L571.927 275.629C569.665 277.999 567.377 280.364 565.058 282.719L567.196 284.823ZM580.9 270.47C583.159 268.037 585.392 265.601 587.604 263.164L585.382 261.148C583.178 263.577 580.952 266.005 578.701 268.429L580.9 270.47ZM594.231 255.788C596.439 253.309 598.627 250.833 600.799 248.361L598.545 246.381C596.377 248.848 594.194 251.32 591.991 253.793L594.231 255.788ZM607.316 240.906C609.496 238.402 611.663 235.907 613.819 233.422L611.553 231.456C609.397 233.94 607.232 236.434 605.054 238.936L607.316 240.906ZM620.3 225.959C622.479 223.454 624.651 220.963 626.82 218.49L624.564 216.512C622.392 218.989 620.217 221.483 618.036 223.99L620.3 225.959ZM633.346 211.096C635.554 208.614 637.762 206.154 639.973 203.72L637.753 201.702C635.533 204.146 633.318 206.614 631.105 209.102L633.346 211.096ZM646.645 196.473C648.909 194.049 651.181 191.654 653.465 189.293L651.309 187.207C649.011 189.582 646.727 191.99 644.452 194.425L646.645 196.473ZM660.389 182.281C662.737 179.955 665.101 177.667 667.486 175.42L665.429 173.237C663.024 175.502 660.642 177.808 658.278 180.15L660.389 182.281ZM674.755 168.766C677.216 166.58 679.702 164.44 682.219 162.35L680.302 160.042C677.758 162.155 675.247 164.316 672.762 166.523L674.755 168.766ZM689.909 156.198C692.51 154.197 695.146 152.251 697.821 150.362L696.091 147.911C693.381 149.824 690.712 151.795 688.08 153.82L689.909 156.198ZM705.975 144.873C708.727 143.109 711.523 141.406 714.368 139.769L712.872 137.169C709.984 138.831 707.147 140.558 704.356 142.347L705.975 144.873ZM723.002 135.082C725.895 133.605 728.841 132.194 731.841 130.853L730.617 128.114C727.568 129.476 724.576 130.91 721.637 132.411L723.002 135.082ZM740.94 127.072C743.949 125.914 747.014 124.825 750.139 123.807L749.21 120.955C746.035 121.989 742.92 123.095 739.863 124.272L740.94 127.072ZM759.641 120.989C762.727 120.161 765.872 119.4 769.077 118.71L768.446 115.777C765.192 116.478 761.998 117.25 758.863 118.091L759.641 120.989ZM778.838 116.862C781.98 116.346 785.18 115.896 788.44 115.513L788.09 112.534C784.785 112.922 781.54 113.378 778.352 113.902L778.838 116.862ZM798.382 114.572C801.541 114.343 804.756 114.176 808.028 114.071L807.932 111.072C804.621 111.178 801.366 111.348 798.165 111.58L798.382 114.572ZM818.019 113.948C821.194 113.97 824.422 114.049 827.704 114.187L827.83 111.19C824.513 111.05 821.251 110.97 818.04 110.948L818.019 113.948ZM837.597 114.77C839.273 114.896 840.962 115.037 842.666 115.194L842.94 112.206C841.22 112.049 839.515 111.906 837.822 111.778L837.597 114.77ZM842.666 115.194C844.386 115.351 846.092 115.516 847.786 115.689L848.091 112.705C846.387 112.531 844.67 112.365 842.94 112.206L842.666 115.194ZM857.785 116.819C861.104 117.231 864.369 117.673 867.58 118.145L868.016 115.177C864.782 114.701 861.495 114.256 858.155 113.842L857.785 116.819ZM877.597 119.742C880.878 120.308 884.099 120.905 887.263 121.534L887.848 118.592C884.659 117.958 881.412 117.355 878.107 116.786L877.597 119.742ZM897.211 123.658C900.466 124.402 903.655 125.181 906.781 125.993L907.535 123.089C904.381 122.269 901.162 121.484 897.88 120.733L897.211 123.658ZM916.552 128.701C919.757 129.647 922.889 130.63 925.951 131.648L926.898 128.802C923.803 127.772 920.638 126.779 917.401 125.824L916.552 128.701ZM935.493 135.021C938.645 136.204 941.715 137.426 944.706 138.687L945.871 135.922C942.843 134.646 939.735 133.409 936.547 132.213L935.493 135.021ZM953.849 142.773C956.916 144.226 959.89 145.721 962.775 147.256L964.184 144.607C961.258 143.05 958.241 141.534 955.133 140.062L953.849 142.773ZM971.371 152.103C974.304 153.855 977.134 155.651 979.863 157.489L981.539 155C978.764 153.132 975.888 151.306 972.91 149.527L971.371 152.103ZM987.96 163.279C990.633 165.311 993.198 167.385 995.656 169.499L997.612 167.224C995.107 165.071 992.496 162.958 989.775 160.891L987.96 163.279ZM1003.01 176.244C1005.43 178.604 1007.72 181.006 1009.9 183.445L1012.14 181.446C1009.91 178.957 1007.57 176.506 1005.11 174.099L1003.01 176.244ZM1016.25 191.075C1018.31 193.723 1020.24 196.407 1022.05 199.122L1024.54 197.457C1022.69 194.682 1020.72 191.94 1018.62 189.236L1016.25 191.075ZM1027.25 207.566C1028.91 210.483 1030.44 213.43 1031.84 216.399L1034.55 215.113C1033.12 212.079 1031.55 209.067 1029.86 206.086L1027.25 207.566ZM1035.78 225.532C1036.98 228.647 1038.07 231.779 1039.04 234.922L1041.9 234.039C1040.92 230.829 1039.81 227.629 1038.57 224.447L1035.78 225.532ZM1041.63 244.519C1042.38 247.768 1043.02 251.022 1043.55 254.274L1046.51 253.795C1045.97 250.477 1045.32 247.156 1044.55 243.839L1041.63 244.519ZM1044.81 264.14C1045.12 267.463 1045.33 270.775 1045.43 274.069L1048.43 273.979C1048.32 270.622 1048.12 267.245 1047.8 263.857L1044.81 264.14ZM1045.42 284.021C1045.31 287.364 1045.1 290.678 1044.8 293.956L1047.78 294.234C1048.09 290.896 1048.31 287.521 1048.42 284.117L1045.42 284.021ZM1043.58 303.838C1043.07 307.155 1042.47 310.422 1041.78 313.631L1044.71 314.261C1045.41 310.995 1046.03 307.669 1046.54 304.293L1043.58 303.838ZM1039.4 323.302C1038.49 326.554 1037.5 329.728 1036.43 332.814L1039.27 333.794C1040.35 330.651 1041.36 327.418 1042.29 324.107L1039.4 323.302ZM1032.88 342.12C1031.56 345.258 1030.16 348.277 1028.7 351.161L1031.38 352.516C1032.87 349.566 1034.3 346.484 1035.64 343.283L1032.88 342.12ZM1023.87 359.846C1022.08 362.773 1020.23 365.507 1018.33 368.028L1020.73 369.831C1022.69 367.229 1024.6 364.414 1026.43 361.41L1023.87 359.846Z" fill="#CFCFCF" fill-opacity="0.3"/>
</svg>
