<svg width="214" height="60" viewBox="0 0 214 60" fill="none" xmlns="http://www.w3.org/2000/svg">
<path d="M21.6699 7.5C23.5944 4.16666 28.4056 4.16667 30.3301 7.5L44.1865 31.5C46.111 34.8333 43.7054 39 39.8564 39H12.1436C8.29459 39 5.88897 34.8333 7.81347 31.5L21.6699 7.5Z" fill="#3F69FF"/>
<g filter="url(#filter0_b_1_1742)">
<path d="M29.6699 11.5C31.5944 8.16667 36.4056 8.16667 38.3301 11.5L53.9186 38.5C55.8431 41.8333 53.4375 46 49.5885 46H18.4115C14.5625 46 12.1569 41.8333 14.0814 38.5L29.6699 11.5Z" fill="#3FBAFF" fill-opacity="0.76"/>
</g>
<path d="M63.696 33C63.234 33 62.807 32.888 62.415 32.664C62.037 32.44 61.736 32.139 61.512 31.761C61.288 31.369 61.176 30.942 61.176 30.48V20.4C61.176 19.938 61.288 19.518 61.512 19.14C61.736 18.748 62.037 18.44 62.415 18.216C62.807 17.992 63.234 17.88 63.696 17.88H76.254V19.581H63.696C63.472 19.581 63.276 19.665 63.108 19.833C62.954 19.987 62.877 20.176 62.877 20.4V30.48C62.877 30.704 62.954 30.9 63.108 31.068C63.276 31.222 63.472 31.299 63.696 31.299H76.254V33H63.696ZM91.2116 33L86.2766 27.12H88.5026L93.4586 32.979V33H91.2116ZM78.4436 33V17.901H91.0436C91.5056 17.901 91.9256 18.02 92.3036 18.258C92.6956 18.482 93.0036 18.783 93.2276 19.161C93.4516 19.539 93.5636 19.959 93.5636 20.421V24.852C93.5636 25.314 93.4516 25.734 93.2276 26.112C93.0036 26.49 92.6956 26.798 92.3036 27.036C91.9256 27.26 91.5056 27.372 91.0436 27.372H80.1446V33H78.4436ZM80.9636 25.65H91.0436C91.2676 25.65 91.4566 25.573 91.6106 25.419C91.7786 25.265 91.8626 25.076 91.8626 24.852V20.421C91.8626 20.197 91.7786 20.008 91.6106 19.854C91.4566 19.686 91.2676 19.602 91.0436 19.602H80.9636C80.7396 19.602 80.5436 19.686 80.3756 19.854C80.2216 20.008 80.1446 20.197 80.1446 20.421V24.852C80.1446 25.076 80.2216 25.265 80.3756 25.419C80.5436 25.573 80.7396 25.65 80.9636 25.65ZM95.7727 33V17.88H98.1037L104.383 25.356L110.662 17.88H112.993V33H111.292V19.812L104.383 28.023L97.4737 19.812V33H95.7727ZM123.392 33C122.93 33 122.503 32.888 122.111 32.664C121.733 32.44 121.432 32.139 121.208 31.761C120.984 31.369 120.872 30.942 120.872 30.48V29.892H122.573V30.48C122.573 30.704 122.65 30.9 122.804 31.068C122.972 31.222 123.168 31.299 123.392 31.299H133.472C133.696 31.299 133.885 31.222 134.039 31.068C134.207 30.9 134.291 30.704 134.291 30.48V27.099C134.291 26.875 134.207 26.686 134.039 26.532C133.885 26.378 133.696 26.301 133.472 26.301H123.392C122.93 26.301 122.503 26.189 122.111 25.965C121.733 25.727 121.432 25.419 121.208 25.041C120.984 24.663 120.872 24.243 120.872 23.781V20.4C120.872 19.938 120.984 19.518 121.208 19.14C121.432 18.748 121.733 18.44 122.111 18.216C122.503 17.992 122.93 17.88 123.392 17.88H133.472C133.934 17.88 134.354 17.992 134.732 18.216C135.124 18.44 135.432 18.748 135.656 19.14C135.88 19.518 135.992 19.938 135.992 20.4V20.988H134.291V20.4C134.291 20.176 134.207 19.987 134.039 19.833C133.885 19.665 133.696 19.581 133.472 19.581H123.392C123.168 19.581 122.972 19.665 122.804 19.833C122.65 19.987 122.573 20.176 122.573 20.4V23.781C122.573 24.005 122.65 24.194 122.804 24.348C122.972 24.502 123.168 24.579 123.392 24.579H133.472C133.934 24.579 134.354 24.698 134.732 24.936C135.124 25.16 135.432 25.461 135.656 25.839C135.88 26.217 135.992 26.637 135.992 27.099V30.48C135.992 30.942 135.88 31.369 135.656 31.761C135.432 32.139 135.124 32.44 134.732 32.664C134.354 32.888 133.934 33 133.472 33H123.392ZM140.68 33C140.218 33 139.791 32.888 139.399 32.664C139.021 32.426 138.713 32.118 138.475 31.74C138.251 31.348 138.139 30.921 138.139 30.459V23.361C138.139 22.899 138.251 22.479 138.475 22.101C138.713 21.709 139.021 21.401 139.399 21.177C139.791 20.939 140.218 20.82 140.68 20.82H147.988C148.464 20.82 148.891 20.939 149.269 21.177C149.661 21.401 149.969 21.709 150.193 22.101C150.431 22.479 150.55 22.899 150.55 23.361V30.459C150.55 30.921 150.431 31.348 150.193 31.74C149.969 32.118 149.661 32.426 149.269 32.664C148.891 32.888 148.464 33 147.988 33H140.68ZM140.68 31.278H147.988C148.212 31.278 148.401 31.201 148.555 31.047C148.723 30.879 148.807 30.683 148.807 30.459V23.361C148.807 23.137 148.723 22.948 148.555 22.794C148.401 22.626 148.212 22.542 147.988 22.542H140.68C140.456 22.542 140.26 22.626 140.092 22.794C139.938 22.948 139.861 23.137 139.861 23.361V30.459C139.861 30.683 139.938 30.879 140.092 31.047C140.26 31.201 140.456 31.278 140.68 31.278ZM154.831 33C154.369 33 153.942 32.888 153.55 32.664C153.172 32.426 152.864 32.118 152.626 31.74C152.402 31.348 152.29 30.921 152.29 30.459V16.83H154.012V30.459C154.012 30.683 154.089 30.879 154.243 31.047C154.411 31.201 154.607 31.278 154.831 31.278H156.889V33H154.831ZM161.189 33C160.727 33 160.3 32.888 159.908 32.664C159.53 32.426 159.222 32.118 158.984 31.74C158.76 31.348 158.648 30.921 158.648 30.459V20.82H160.37V30.459C160.37 30.683 160.447 30.879 160.601 31.047C160.769 31.201 160.965 31.278 161.189 31.278H168.497C168.721 31.278 168.917 31.201 169.085 31.047C169.253 30.879 169.337 30.683 169.337 30.459V20.82H171.059V30.459C171.059 30.921 170.94 31.348 170.702 31.74C170.478 32.118 170.17 32.426 169.778 32.664C169.4 32.888 168.973 33 168.497 33H161.189ZM175.483 33C175.007 33 174.573 32.888 174.181 32.664C173.803 32.426 173.502 32.118 173.278 31.74C173.054 31.348 172.942 30.921 172.942 30.459V16.83H174.664V20.82H179.935V22.542H174.664V30.459C174.664 30.683 174.741 30.879 174.895 31.047C175.063 31.201 175.259 31.278 175.483 31.278H179.935V33H175.483ZM181.637 33V20.82H183.359V33H181.637ZM181.637 18.552V16.83H183.359V18.552H181.637ZM188.525 33C188.063 33 187.636 32.888 187.244 32.664C186.866 32.426 186.558 32.118 186.32 31.74C186.096 31.348 185.984 30.921 185.984 30.459V23.361C185.984 22.899 186.096 22.479 186.32 22.101C186.558 21.709 186.866 21.401 187.244 21.177C187.636 20.939 188.063 20.82 188.525 20.82H195.833C196.309 20.82 196.736 20.939 197.114 21.177C197.506 21.401 197.814 21.709 198.038 22.101C198.276 22.479 198.395 22.899 198.395 23.361V30.459C198.395 30.921 198.276 31.348 198.038 31.74C197.814 32.118 197.506 32.426 197.114 32.664C196.736 32.888 196.309 33 195.833 33H188.525ZM188.525 31.278H195.833C196.057 31.278 196.246 31.201 196.4 31.047C196.568 30.879 196.652 30.683 196.652 30.459V23.361C196.652 23.137 196.568 22.948 196.4 22.794C196.246 22.626 196.057 22.542 195.833 22.542H188.525C188.301 22.542 188.105 22.626 187.937 22.794C187.783 22.948 187.706 23.137 187.706 23.361V30.459C187.706 30.683 187.783 30.879 187.937 31.047C188.105 31.201 188.301 31.278 188.525 31.278ZM200.28 33V20.82H210.15C210.612 20.82 211.032 20.939 211.41 21.177C211.802 21.401 212.11 21.709 212.334 22.101C212.572 22.479 212.691 22.899 212.691 23.361V33H210.969V23.361C210.969 23.137 210.885 22.948 210.717 22.794C210.563 22.626 210.374 22.542 210.15 22.542H202.842C202.618 22.542 202.422 22.626 202.254 22.794C202.086 22.948 202.002 23.137 202.002 23.361V33H200.28Z" fill="#303030"/>
<defs>
<filter id="filter0_b_1_1742" x="10.4043" y="6" width="47.1914" height="43" filterUnits="userSpaceOnUse" color-interpolation-filters="sRGB">
<feFlood flood-opacity="0" result="BackgroundImageFix"/>
<feGaussianBlur in="BackgroundImageFix" stdDeviation="1.5"/>
<feComposite in2="SourceAlpha" operator="in" result="effect1_backgroundBlur_1_1742"/>
<feBlend mode="normal" in="SourceGraphic" in2="effect1_backgroundBlur_1_1742" result="shape"/>
</filter>
</defs>
</svg>
