<svg width="147" height="40" viewBox="0 0 147 40" fill="none" xmlns="http://www.w3.org/2000/svg">
<circle cx="20" cy="20" r="20" fill="#E24329"/>
<mask id="mask0_1_1722" style="mask-type:alpha" maskUnits="userSpaceOnUse" x="0" y="0" width="40" height="40">
<circle cx="20" cy="20" r="20" fill="#E24329"/>
</mask>
<g mask="url(#mask0_1_1722)">
<ellipse cx="2.59295" cy="8.88909" rx="17.4074" ry="17.037" fill="#FC6D26"/>
<circle cx="34.8154" cy="29.6298" r="18.5185" fill="#FCA326"/>
</g>
<path d="M61.439 30L57.1221 17.48H57.0298C57.0503 17.7603 57.0742 18.1431 57.1016 18.6284C57.1289 19.1138 57.1528 19.6333 57.1733 20.187C57.1938 20.7407 57.2041 21.2705 57.2041 21.7764V30H54.9688V15.0088H58.4243L62.5771 26.9751H62.6387L66.9351 15.0088H70.3804V30H68.0322V21.6533C68.0322 21.1953 68.0391 20.6997 68.0527 20.1665C68.0732 19.6333 68.0938 19.1274 68.1143 18.6489C68.1416 18.1704 68.1621 17.7876 68.1758 17.5005H68.0938L63.6128 30H61.439ZM83.9771 18.6489V30H82.0801L81.752 28.4722H81.6187C81.3794 28.8618 81.0752 29.1865 80.7061 29.4463C80.3369 29.6992 79.9268 29.8872 79.4756 30.0103C79.0244 30.1401 78.5493 30.2051 78.0503 30.2051C77.1958 30.2051 76.4644 30.0615 75.856 29.7744C75.2544 29.4805 74.793 29.0293 74.4717 28.4209C74.1504 27.8125 73.9897 27.0264 73.9897 26.0625V18.6489H76.4097V25.6113C76.4097 26.4932 76.5874 27.1528 76.9429 27.5903C77.3052 28.0278 77.8657 28.2466 78.6245 28.2466C79.356 28.2466 79.937 28.0962 80.3677 27.7954C80.7983 27.4946 81.1025 27.0503 81.2803 26.4624C81.4648 25.8745 81.5571 25.1533 81.5571 24.2988V18.6489H83.9771ZM89.8525 30H87.4326V14.0449H89.8525V30ZM97.5225 28.2568C97.8369 28.2568 98.1479 28.2295 98.4556 28.1748C98.7632 28.1133 99.0435 28.0415 99.2964 27.9595V29.7847C99.0298 29.9009 98.6846 30 98.2607 30.082C97.8369 30.1641 97.396 30.2051 96.938 30.2051C96.2954 30.2051 95.7178 30.0991 95.2051 29.8872C94.6924 29.6685 94.2856 29.2959 93.9849 28.7695C93.6841 28.2432 93.5337 27.5151 93.5337 26.5854V20.4844H91.9854V19.4077L93.6465 18.5566L94.436 16.1265H95.9536V18.6489H99.2041V20.4844H95.9536V26.5547C95.9536 27.1289 96.0972 27.5562 96.3843 27.8364C96.6714 28.1167 97.0508 28.2568 97.5225 28.2568ZM104.013 18.6489V30H101.604V18.6489H104.013ZM102.824 14.3013C103.193 14.3013 103.511 14.4004 103.777 14.5986C104.051 14.7969 104.188 15.1387 104.188 15.624C104.188 16.1025 104.051 16.4443 103.777 16.6494C103.511 16.8477 103.193 16.9468 102.824 16.9468C102.441 16.9468 102.116 16.8477 101.85 16.6494C101.59 16.4443 101.46 16.1025 101.46 15.624C101.46 15.1387 101.59 14.7969 101.85 14.5986C102.116 14.4004 102.441 14.3013 102.824 14.3013ZM116.749 29.9897L115.313 24.709C115.245 24.4492 115.163 24.1348 115.067 23.7656C114.971 23.3965 114.875 23.0171 114.78 22.6274C114.684 22.231 114.595 21.8652 114.513 21.5303C114.438 21.1953 114.38 20.9355 114.339 20.751H114.257C114.223 20.9355 114.168 21.1953 114.093 21.5303C114.018 21.8652 113.932 22.231 113.836 22.6274C113.741 23.0239 113.645 23.4102 113.549 23.7861C113.46 24.1621 113.378 24.4834 113.303 24.75L111.796 29.9897H109.15L105.972 18.6387H108.412L109.889 24.2783C109.984 24.6611 110.077 25.0747 110.166 25.519C110.261 25.9634 110.343 26.3872 110.412 26.7905C110.48 27.1938 110.531 27.5254 110.565 27.7852H110.647C110.675 27.6006 110.712 27.3682 110.76 27.0879C110.808 26.8008 110.863 26.5034 110.924 26.1958C110.986 25.8813 111.047 25.5874 111.109 25.314C111.17 25.0337 111.229 24.8081 111.283 24.6372L113.026 18.6387H115.662L117.333 24.6372C117.408 24.897 117.49 25.2251 117.579 25.6216C117.668 26.0112 117.747 26.4043 117.815 26.8008C117.89 27.1904 117.938 27.5151 117.958 27.7749H118.041C118.068 27.5425 118.116 27.228 118.184 26.8315C118.259 26.4282 118.345 26.001 118.44 25.5498C118.536 25.0918 118.635 24.668 118.738 24.2783L120.245 18.6387H122.645L119.445 29.9897H116.749ZM129.043 18.4336C130.479 18.4336 131.562 18.7515 132.293 19.3872C133.032 20.0229 133.401 21.0142 133.401 22.3608V30H131.688L131.227 28.3901H131.145C130.824 28.8003 130.492 29.1387 130.15 29.4053C129.809 29.6719 129.412 29.8701 128.961 30C128.517 30.1367 127.973 30.2051 127.331 30.2051C126.654 30.2051 126.049 30.082 125.516 29.8359C124.982 29.583 124.562 29.2002 124.254 28.6875C123.947 28.1748 123.793 27.5254 123.793 26.7393C123.793 25.5703 124.227 24.6919 125.095 24.104C125.97 23.5161 127.29 23.1914 129.053 23.1299L131.022 23.0581V22.4634C131.022 21.6772 130.837 21.1167 130.468 20.7817C130.106 20.4468 129.593 20.2793 128.93 20.2793C128.363 20.2793 127.812 20.3613 127.279 20.5254C126.746 20.6895 126.227 20.8911 125.721 21.1304L124.941 19.4282C125.495 19.1343 126.124 18.895 126.828 18.7104C127.539 18.5259 128.277 18.4336 129.043 18.4336ZM131.012 24.5757L129.545 24.627C128.342 24.668 127.498 24.873 127.013 25.2422C126.527 25.6113 126.285 26.1172 126.285 26.7598C126.285 27.3203 126.452 27.7305 126.787 27.9902C127.122 28.2432 127.563 28.3696 128.11 28.3696C128.944 28.3696 129.634 28.1338 130.181 27.6621C130.735 27.1836 131.012 26.4829 131.012 25.5601V24.5757ZM135.062 18.6489H137.687L140.015 25.1294C140.117 25.4233 140.209 25.7139 140.292 26.001C140.38 26.2812 140.456 26.5581 140.517 26.8315C140.585 27.105 140.64 27.3784 140.681 27.6519H140.743C140.811 27.2964 140.907 26.8999 141.03 26.4624C141.16 26.0181 141.303 25.5737 141.46 25.1294L143.696 18.6489H146.29L141.419 31.5586C141.139 32.2969 140.794 32.9258 140.384 33.4453C139.98 33.9717 139.502 34.3682 138.948 34.6348C138.395 34.9082 137.762 35.0449 137.051 35.0449C136.709 35.0449 136.412 35.0244 136.159 34.9834C135.906 34.9492 135.691 34.9116 135.513 34.8706V32.9429C135.657 32.9771 135.838 33.0078 136.057 33.0352C136.275 33.0625 136.501 33.0762 136.733 33.0762C137.164 33.0762 137.537 32.9907 137.851 32.8198C138.166 32.6489 138.432 32.4062 138.651 32.0918C138.87 31.7842 139.051 31.4321 139.194 31.0356L139.594 29.9692L135.062 18.6489Z" fill="#303030"/>
</svg>
