<svg width="137" height="44" viewBox="0 0 137 44" fill="none" xmlns="http://www.w3.org/2000/svg">
<rect y="22" width="30.2965" height="30.2965" transform="rotate(-45 0 22)" fill="#5CCE4A"/>
<rect x="13.207" y="22" width="11.6281" height="11.6281" transform="rotate(-45 13.207 22)" fill="#454545"/>
<path d="M50.68 24.3641V16.3001C50.68 14.1581 51.751 13.0871 53.893 13.0871H58.807C60.949 13.0871 62.02 14.1581 62.02 16.3001V24.3641C62.02 26.5061 60.949 27.5771 58.807 27.5771H53.893C51.751 27.5771 50.68 26.5061 50.68 24.3641ZM52.444 24.5531C52.444 25.5051 52.92 25.9811 53.872 25.9811H58.828C59.78 25.9811 60.256 25.5051 60.256 24.5531V16.1111C60.256 15.1591 59.78 14.6831 58.828 14.6831H53.872C52.92 14.6831 52.444 15.1591 52.444 16.1111V24.5531ZM65.3841 27.5771V16.6571H71.2641C73.3641 16.6571 74.4141 17.7071 74.4141 19.8071V27.5771H72.7341V19.5971C72.7341 18.6171 72.2441 18.1271 71.2641 18.1271H67.0641V27.5771H65.3841ZM77.5208 24.4271V19.8071C77.5208 17.7071 78.5708 16.6571 80.6708 16.6571H83.4008C85.5008 16.6571 86.5508 17.7071 86.5508 19.8071V22.7681H79.2008V24.6371C79.2008 25.6171 79.6908 26.1071 80.6708 26.1071H86.1308V26.9471L85.2908 27.5771H80.6708C78.5708 27.5771 77.5208 26.5271 77.5208 24.4271ZM79.2008 21.4031H84.8708V19.5971C84.8708 18.6171 84.3808 18.1271 83.4008 18.1271H80.6708C79.6908 18.1271 79.2008 18.6171 79.2008 19.5971V21.4031ZM89.8524 27.5771V13.0871H96.8244C99.1064 13.0871 100.247 14.2281 100.247 16.5101V19.3031C100.247 21.5711 99.1064 22.7051 96.8244 22.7051H92.4144V27.5771H89.8524ZM92.4144 20.3741H96.7614C97.3774 20.3741 97.6854 20.0661 97.6854 19.4501V16.3211C97.6854 15.7191 97.3774 15.4181 96.7614 15.4181H92.4144V20.3741ZM105.292 27.5771C103.08 27.5771 101.974 26.4851 101.974 24.3011C101.974 22.1171 103.08 21.0251 105.292 21.0251H108.526V19.6601C108.526 19.0161 108.204 18.6941 107.56 18.6941H103.108V17.3711L104.2 16.5521H107.686C109.884 16.5521 110.983 17.6581 110.983 19.8701V27.5771H105.292ZM104.431 24.4691C104.431 25.1131 104.753 25.4351 105.397 25.4351H108.526V22.9361H105.397C104.753 22.9361 104.431 23.2511 104.431 23.8811V24.4691ZM113.816 24.2591V19.8701C113.816 17.6581 114.922 16.5521 117.134 16.5521H123.182V28.4591C123.182 30.6711 122.076 31.7771 119.864 31.7771H115.853L114.74 30.9581V29.6351H119.759C120.403 29.6351 120.725 29.3131 120.725 28.6691V27.5771H117.134C114.922 27.5771 113.816 26.4711 113.816 24.2591ZM116.273 24.4691C116.273 25.1131 116.595 25.4351 117.239 25.4351H120.725V18.6941H117.239C116.595 18.6941 116.273 19.0161 116.273 19.6601V24.4691ZM126.101 24.2591V19.8701C126.101 17.6581 127.207 16.5521 129.419 16.5521H132.149C134.347 16.5521 135.446 17.6581 135.446 19.8701V22.9781H128.558V24.4691C128.558 25.1131 128.88 25.4351 129.524 25.4351H135.026V26.7581L133.913 27.5771H129.419C127.207 27.5771 126.101 26.4711 126.101 24.2591ZM128.558 21.0671H132.989V19.6601C132.989 19.0161 132.667 18.6941 132.023 18.6941H129.524C128.88 18.6941 128.558 19.0161 128.558 19.6601V21.0671Z" fill="#303030"/>
</svg>
