<svg width="93" height="38" viewBox="0 0 93 38" fill="none" xmlns="http://www.w3.org/2000/svg">
<path d="M0.831543 23.4574V0.713867H14.3618V23.4463H0.831543V23.4574ZM12.7224 18.1661L13.0705 15.6539L11.8129 15.5316L11.4311 17.4658C10.6451 17.8549 9.67951 18.0439 8.52299 18.0439C6.95101 18.0439 5.70466 17.5547 4.79516 16.5654C3.87443 15.5761 3.42529 14.2755 3.42529 12.6525C3.42529 11.0741 3.87443 9.77348 4.76147 8.7508C5.64852 7.72812 6.8163 7.21678 8.26476 7.21678C9.00583 7.21678 9.6346 7.30571 10.1399 7.47245C10.6452 7.63919 11.1055 7.86151 11.5434 8.15053L11.914 10.0625L13.194 9.94022L12.8235 7.42799C12.2845 6.97223 11.6445 6.6054 10.9034 6.31638C10.1623 6.03848 9.24162 5.89396 8.15246 5.89396C6.8612 5.89396 5.74959 6.20522 4.81764 6.83883C3.88568 7.47245 3.15583 8.30616 2.63933 9.33995C2.12282 10.3849 1.86457 11.5076 1.86457 12.7081C1.86457 14.609 2.45967 16.1986 3.64988 17.4658C4.84008 18.7331 6.38959 19.3667 8.30964 19.3667C10.196 19.3667 11.667 18.9665 12.7224 18.1661Z" fill="#303030"/>
<path d="M18.9546 23.4574V0.713867H24.7709V23.4463H18.9546V23.4574ZM19.5721 19.1666H24.1645V18.0216H22.5814V5.32705H19.5497V6.472H21.1553V18.0216H19.5721V19.1666Z" fill="#303030"/>
<path d="M29.3628 23.4574V0.713867H39.5806V23.4463H29.3628V23.4574ZM31.2155 10.8962L30.8899 12.9638L32.0688 13.1083L32.4169 11.5632C32.9222 11.3186 33.4948 11.1963 34.1685 11.1963C34.977 11.1963 35.5272 11.3964 35.8079 11.7966C36.0886 12.1968 36.2233 12.7192 36.2233 13.364V14.1643C35.9763 14.1421 35.7181 14.1199 35.4373 14.1088C35.1566 14.0976 34.8872 14.0865 34.6177 14.0865C33.6071 14.0865 32.6415 14.2644 31.7432 14.6201C30.8449 14.9758 30.3958 15.7206 30.3958 16.8433C30.3958 17.7993 30.699 18.4551 31.3166 18.8109C31.9341 19.1777 32.5404 19.3556 33.1355 19.3556C33.8654 19.3556 34.4942 19.1666 35.0107 18.7886C35.5272 18.4107 35.9314 17.9883 36.2233 17.4992V17.5436C36.2458 18.7553 36.796 19.3556 37.8739 19.3556C38.2894 19.3556 38.6823 19.2555 39.0529 19.0554L39.0304 18.1328C38.8508 18.2106 38.6487 18.2551 38.4241 18.2551C37.9076 18.2551 37.6493 17.9327 37.6493 17.288V13.0305C37.6493 11.0296 36.5714 10.0292 34.4156 10.0292C33.8205 10.0292 33.259 10.0958 32.7313 10.2292C32.1923 10.3738 31.6871 10.5961 31.2155 10.8962ZM36.2121 15.8095C36.156 16.5432 35.8528 17.1323 35.3026 17.5547C34.7524 17.9883 34.1685 18.1995 33.5397 18.1995C33.1468 18.1995 32.765 18.0883 32.4057 17.8771C32.0352 17.6659 31.8555 17.2657 31.8555 16.6877C31.8555 15.9874 32.1362 15.5427 32.6752 15.3315C33.2254 15.1203 33.8317 15.0203 34.5166 15.0203C34.8198 15.0203 35.1117 15.0314 35.3924 15.0647C35.6731 15.087 35.9538 15.1092 36.2009 15.1203V15.8095H36.2121Z" fill="#303030"/>
<path d="M44.1851 23.4574V0.713867H53.4709V23.4463H44.1851V23.4574ZM52.494 16.5765C52.494 15.8651 52.3032 15.3426 51.9214 14.998C51.5396 14.6534 51.0793 14.42 50.5178 14.2866C49.9564 14.1532 49.4063 14.0421 48.8561 13.9531C48.3059 13.8642 47.8343 13.7197 47.4525 13.5307C47.0708 13.3417 46.8799 13.0083 46.8799 12.5303C46.8799 12.0745 47.0595 11.741 47.43 11.5187C47.8006 11.2964 48.2609 11.1963 48.8336 11.1963C49.4961 11.1963 50.1136 11.3408 50.6863 11.641L50.9109 13.0861L52.0898 12.9416L51.8653 10.8517C51.4835 10.6183 51.0231 10.4293 50.473 10.2737C49.9228 10.1181 49.3389 10.0292 48.7101 10.0292C47.8792 10.0292 47.1157 10.2292 46.4083 10.6183C45.7009 11.0074 45.3528 11.6743 45.3528 12.6303C45.3528 13.3306 45.5437 13.842 45.9254 14.1643C46.3072 14.4978 46.7788 14.7201 47.3515 14.8535C47.9241 14.9869 48.4855 15.0981 49.0469 15.1981C49.6083 15.2871 50.08 15.4427 50.4617 15.6428C50.8435 15.8429 51.0344 16.1875 51.0344 16.6877C51.0344 17.199 50.7873 17.577 50.2933 17.8215C49.7992 18.0661 49.2378 18.1884 48.5978 18.1884C47.8792 18.1884 47.2055 18.0439 46.5879 17.7437L46.6441 16.5543L45.51 16.432L45.2293 18.4663C45.6223 18.7219 46.1388 18.9331 46.7676 19.0999C47.3964 19.2666 48.0252 19.3556 48.6652 19.3556C49.7543 19.3556 50.6638 19.111 51.3937 18.6108C52.1235 18.1328 52.494 17.4436 52.494 16.5765Z" fill="#303030"/>
<path d="M58.062 23.4574V0.713867H67.3478V23.4463H58.062V23.4574ZM66.371 16.5765C66.371 15.8651 66.1801 15.3426 65.7983 14.998C65.4165 14.6534 64.9562 14.42 64.3948 14.2866C63.8333 14.1532 63.2832 14.0421 62.733 13.9531C62.1828 13.8642 61.7112 13.7197 61.3294 13.5307C60.9477 13.3417 60.7568 13.0083 60.7568 12.5303C60.7568 12.0745 60.9364 11.741 61.307 11.5187C61.6775 11.2964 62.1379 11.1963 62.7105 11.1963C63.373 11.1963 63.9906 11.3408 64.5632 11.641L64.7878 13.0861L65.9668 12.9416L65.7422 10.8517C65.3604 10.6183 64.9001 10.4293 64.3499 10.2737C63.7997 10.1181 63.2158 10.0292 62.587 10.0292C61.7561 10.0292 60.9926 10.2292 60.2852 10.6183C59.5778 11.0074 59.2297 11.6743 59.2297 12.6303C59.2297 13.3306 59.4206 13.842 59.8024 14.1643C60.1842 14.4978 60.6558 14.7201 61.2284 14.8535C61.8011 14.9869 62.3624 15.0981 62.9238 15.1981C63.4853 15.2871 63.9569 15.4427 64.3386 15.6428C64.7204 15.8429 64.9113 16.1875 64.9113 16.6877C64.9113 17.199 64.6643 17.577 64.1702 17.8215C63.6762 18.0661 63.1148 18.1884 62.4748 18.1884C61.7561 18.1884 61.0824 18.0439 60.4648 17.7437L60.521 16.5543L59.387 16.432L59.1062 18.4663C59.4992 18.7219 60.0157 18.9331 60.6445 19.0999C61.2733 19.2666 61.9021 19.3556 62.5421 19.3556C63.6313 19.3556 64.5408 19.111 65.2706 18.6108C66.0005 18.1328 66.371 17.4436 66.371 16.5765Z" fill="#303030"/>
<path d="M71.9409 23.4574V0.713867H78.0604V23.4463H71.9409V23.4574ZM72.8392 19.1666H77.4316V18.0216H75.8484V10.2181H72.8055V11.3631H74.4336V18.0216H72.8504V19.1666H72.8392ZM74.2764 6.07182V7.90598H75.826V6.07182H74.2764Z" fill="#303030"/>
<path d="M82.6519 23.4574V0.713867H92.4318V23.4463H82.6519V23.4574ZM91.5559 16.1541L90.3321 15.8873C90.0626 17.3991 89.243 18.155 87.8956 18.155C86.9973 18.155 86.3123 17.8549 85.8407 17.2546C85.3692 16.6543 85.1334 15.8095 85.1334 14.7424C85.1334 13.7753 85.3467 12.9527 85.7621 12.2635C86.1776 11.5743 86.8737 11.2408 87.8394 11.2408C88.5804 11.2408 89.2317 11.4075 89.7707 11.741L90.1188 13.2528L91.2977 13.1083L90.9496 10.9518C90.4893 10.6072 90.0065 10.3626 89.5012 10.2292C88.9959 10.0958 88.4457 10.0292 87.8506 10.0292C86.4471 10.0292 85.3803 10.5183 84.6842 11.4965C83.9768 12.4747 83.6287 13.5863 83.6287 14.8202C83.6287 16.2542 83.9993 17.3769 84.7516 18.1661C85.4926 18.9665 86.492 19.3667 87.7383 19.3667C88.9847 19.3667 89.9054 19.0221 90.4893 18.344C91.0732 17.6548 91.4324 16.9322 91.5559 16.1541Z" fill="#303030"/>
<path d="M6.68221 35.8736C6.42396 36.3404 6.04218 36.7073 5.54813 36.9629C5.04286 37.2186 4.44775 37.352 3.75159 37.352H1.7417V31.0825H3.75159C4.44775 31.0825 5.05409 31.2048 5.54813 31.4605C6.04218 31.7161 6.42396 32.0719 6.68221 32.5498C6.94046 33.0278 7.06397 33.5725 7.06397 34.2173C7.06397 34.8509 6.94046 35.4067 6.68221 35.8736ZM5.57058 35.9958C6.00848 35.5734 6.22184 34.9843 6.22184 34.2173C6.22184 33.4502 6.00848 32.8611 5.57058 32.4387C5.13267 32.0163 4.50388 31.8051 3.67298 31.8051H2.53894V36.6294H3.67298C4.50388 36.6294 5.13267 36.4182 5.57058 35.9958Z" fill="#303030"/>
<path d="M11.2294 31.7384V33.8838H13.6322V34.5063H11.2294V36.6961H13.9017V37.352H10.4097V31.0825H13.9017V31.7384H11.2294Z" fill="#303030"/>
<path d="M20.9988 36.5519C20.8528 36.8076 20.6394 37.0188 20.3475 37.1744C20.0556 37.3301 19.6963 37.419 19.2583 37.419C18.8429 37.419 18.4611 37.3412 18.1355 37.1967C17.8099 37.041 17.5517 36.8409 17.3495 36.5742C17.1587 36.3074 17.0464 36.0072 17.0127 35.6738H17.8885C17.9109 35.8516 17.9671 36.0295 18.0681 36.1962C18.1692 36.363 18.3264 36.5075 18.5173 36.6186C18.7082 36.7298 18.944 36.7854 19.2247 36.7854C19.584 36.7854 19.8647 36.6964 20.0556 36.4963C20.2465 36.2963 20.3475 36.0628 20.3475 35.7627C20.3475 35.507 20.2801 35.2958 20.1454 35.1402C20.0107 34.9846 19.8422 34.8512 19.6513 34.7622C19.4605 34.6733 19.1798 34.5733 18.8429 34.4621C18.4387 34.3287 18.1243 34.2064 17.8773 34.0953C17.6303 33.9841 17.4281 33.8063 17.2597 33.5728C17.0913 33.3394 17.0015 33.0392 17.0015 32.6613C17.0015 32.3389 17.0801 32.0499 17.2373 31.7942C17.3944 31.5497 17.619 31.3496 17.9222 31.2162C18.2141 31.0828 18.5734 31.0161 18.9664 31.0161C19.584 31.0161 20.0892 31.1606 20.4485 31.4608C20.8191 31.7609 21.0212 32.1388 21.0886 32.6057H20.2128C20.1679 32.3612 20.0331 32.1388 19.831 31.9499C19.6177 31.7609 19.3369 31.6608 18.9776 31.6608C18.652 31.6608 18.3826 31.7498 18.1917 31.9165C17.9896 32.0833 17.8997 32.3278 17.8997 32.6279C17.8997 32.8725 17.9671 33.0726 18.0906 33.2171C18.2254 33.3727 18.3825 33.4839 18.5734 33.5728C18.7643 33.6617 19.0338 33.7507 19.3594 33.8618C19.7636 33.9952 20.0892 34.1175 20.3475 34.2398C20.5945 34.3621 20.8079 34.5399 20.9763 34.7734C21.1447 35.0068 21.2345 35.3292 21.2345 35.7293C21.2121 36.0184 21.1447 36.2963 20.9988 36.5519Z" fill="#303030"/>
<path d="M25.3778 31.0825V37.352H24.5581V31.0825H25.3778Z" fill="#303030"/>
<path d="M33.6632 31.5606C34.1684 31.9274 34.5053 32.4165 34.6737 33.039H33.8091C33.6632 32.6611 33.4049 32.3498 33.0568 32.1275C32.7087 31.894 32.2933 31.7829 31.8105 31.7829C31.3838 31.7829 30.9908 31.8829 30.6539 32.083C30.3171 32.2831 30.0476 32.561 29.8455 32.9278C29.6546 33.2947 29.5536 33.7282 29.5536 34.2284C29.5536 34.7398 29.6546 35.1844 29.8455 35.5512C30.0364 35.9181 30.3171 36.2071 30.6652 36.4072C31.0132 36.6073 31.4175 36.7073 31.8779 36.7073C32.2708 36.7073 32.6189 36.6184 32.9445 36.4628C33.2702 36.296 33.5284 36.0515 33.7417 35.7402C33.9551 35.429 34.0674 35.051 34.1123 34.6286H31.6196V34.0283H34.7972V34.7731C34.7411 35.2733 34.5839 35.718 34.3256 36.1293C34.0674 36.5406 33.7193 36.8518 33.2814 37.0853C32.8435 37.3187 32.3494 37.441 31.788 37.441C31.1817 37.441 30.6427 37.3076 30.1711 37.0408C29.6995 36.774 29.3402 36.3961 29.082 35.907C28.8237 35.429 28.689 34.8732 28.689 34.2507C28.689 33.6282 28.8237 33.0724 29.082 32.5944C29.3402 32.1164 29.7108 31.7273 30.1711 31.4605C30.6315 31.1937 31.1704 31.0492 31.7768 31.0492C32.5403 31.027 33.1579 31.2048 33.6632 31.5606Z" fill="#303030"/>
<path d="M43.085 37.352H42.2654L38.9754 32.3942V37.352H38.1558V31.0825H38.9754L42.2654 36.0403V31.0825H43.085V37.352Z" fill="#303030"/>
<path d="M54.8972 36.5514C54.7512 36.8071 54.5379 37.0183 54.2459 37.1739C53.954 37.3296 53.5947 37.4185 53.1568 37.4185C52.7414 37.4185 52.3596 37.3407 52.034 37.1962C51.7084 37.0405 51.4501 36.8405 51.248 36.5737C51.0571 36.3069 50.9448 36.0067 50.9111 35.6733H51.7869C51.8094 35.8511 51.8656 36.029 51.9666 36.1957C52.0677 36.3625 52.2248 36.507 52.4157 36.6181C52.6066 36.7293 52.8424 36.7849 53.1231 36.7849C53.4824 36.7849 53.7631 36.6959 53.954 36.4959C54.1449 36.2958 54.2459 36.0623 54.2459 35.7622C54.2459 35.5065 54.1786 35.2953 54.0438 35.1397C53.9091 34.9841 53.7407 34.8507 53.5498 34.7617C53.3589 34.6728 53.0782 34.5728 52.7414 34.4616C52.3372 34.3282 52.0227 34.2059 51.7757 34.0948C51.5287 33.9836 51.3266 33.8058 51.1581 33.5723C50.9897 33.3389 50.8999 33.0388 50.8999 32.6608C50.8999 32.3384 50.9785 32.0494 51.1357 31.7938C51.2929 31.5492 51.5175 31.3491 51.8206 31.2157C52.1126 31.0823 52.4719 31.0156 52.8649 31.0156C53.4824 31.0156 53.9877 31.1601 54.347 31.4603C54.7176 31.7604 54.9197 32.1384 54.987 32.6052H54.1112C54.0663 32.3607 53.9315 32.1384 53.7294 31.9494C53.5161 31.7604 53.2354 31.6604 52.8761 31.6604C52.5505 31.6604 52.281 31.7493 52.0901 31.916C51.888 32.0828 51.7982 32.3273 51.7982 32.6275C51.7982 32.872 51.8655 33.0721 51.989 33.2166C52.1238 33.3722 52.281 33.4834 52.4718 33.5723C52.6627 33.6613 52.9322 33.7502 53.2578 33.8613C53.6621 33.9947 53.9877 34.117 54.2459 34.2393C54.493 34.3616 54.7063 34.5394 54.8747 34.7729C55.0431 35.0063 55.133 35.3287 55.133 35.7288C55.1105 36.0179 55.0432 36.2958 54.8972 36.5514Z" fill="#303030"/>
<path d="M62.3405 31.0825V31.7384H60.5552V37.352H59.7243V31.7384H57.939V31.0825H62.3405Z" fill="#303030"/>
<path d="M66.16 31.0825V34.8398C66.16 35.4511 66.2947 35.9069 66.5754 36.207C66.8561 36.4961 67.2267 36.6517 67.7207 36.6517C68.2035 36.6517 68.5741 36.5072 68.8436 36.207C69.113 35.9069 69.2478 35.4623 69.2478 34.8509V31.0936H70.0675V34.8509C70.0675 35.7068 69.8541 36.3515 69.4275 36.774C69.0008 37.2075 68.4281 37.4187 67.7095 37.4187C67.0021 37.4187 66.4295 37.2075 66.0028 36.774C65.5761 36.3404 65.3628 35.7068 65.3628 34.8509V31.0936H66.16V31.0825Z" fill="#303030"/>
<path d="M78.522 35.8736C78.2637 36.3404 77.882 36.7073 77.3879 36.9629C76.8826 37.2186 76.2876 37.352 75.5914 37.352H73.5815V31.0825H75.5914C76.2876 31.0825 76.8939 31.2048 77.3879 31.4605C77.882 31.7161 78.2637 32.0719 78.522 32.5498C78.7802 33.0278 78.9038 33.5725 78.9038 34.2173C78.9038 34.8509 78.7802 35.4067 78.522 35.8736ZM77.4216 35.9958C77.8595 35.5734 78.0729 34.9843 78.0729 34.2173C78.0729 33.4502 77.8595 32.8611 77.4216 32.4387C76.9837 32.0163 76.3549 31.8051 75.524 31.8051H74.39V36.6294H75.524C76.3437 36.6294 76.9837 36.4182 77.4216 35.9958Z" fill="#303030"/>
<path d="M83.0789 31.0825V37.352H82.2593V31.0825H83.0789Z" fill="#303030"/>
<path d="M91.1202 31.4162C91.5918 31.6941 91.9623 32.072 92.2318 32.5611C92.5013 33.0502 92.636 33.606 92.636 34.2174C92.636 34.8288 92.5013 35.3846 92.2318 35.8737C91.9623 36.3628 91.5918 36.7408 91.1202 37.0187C90.6486 37.2966 90.1209 37.43 89.537 37.43C88.9531 37.43 88.4142 37.2966 87.9426 37.0187C87.471 36.7408 87.0892 36.3628 86.8197 35.8737C86.5503 35.3846 86.4155 34.8288 86.4155 34.2174C86.4155 33.606 86.5503 33.0502 86.8197 32.5611C87.0892 32.072 87.4597 31.6941 87.9426 31.4162C88.4254 31.1383 88.9531 31.0049 89.537 31.0049C90.1209 31.0049 90.6486 31.1383 91.1202 31.4162ZM88.358 32.0609C88.0099 32.261 87.7405 32.5389 87.5496 32.9168C87.3587 33.2837 87.2577 33.7172 87.2577 34.2174C87.2577 34.7065 87.3587 35.1401 87.5496 35.518C87.7405 35.896 88.0099 36.1739 88.358 36.374C88.7061 36.574 89.0878 36.6741 89.5257 36.6741C89.9524 36.6741 90.3455 36.574 90.6935 36.374C91.0416 36.1739 91.3111 35.8848 91.5019 35.518C91.6928 35.1512 91.7939 34.7177 91.7939 34.2285C91.7939 33.7283 91.6928 33.2948 91.5019 32.928C91.3111 32.5611 91.0416 32.2721 90.6935 32.072C90.3455 31.8719 89.9636 31.7719 89.5257 31.7719C89.0991 31.7608 88.7061 31.8608 88.358 32.0609Z" fill="#303030"/>
</svg>
