<svg width="116" height="64" viewBox="0 0 116 64" fill="none" xmlns="http://www.w3.org/2000/svg">
<path d="M30.5634 14.8276L1.63623 28.8276V35.8276H113.636V0.827637L65.4243 22.8276L30.5634 14.8276Z" fill="url(#paint0_linear_1_2554)"/>
<path d="M0.63623 28.8276L25.7026 16.6999C28.5378 15.3282 31.7526 14.9525 34.8276 15.6336L61.0878 21.4503C63.9956 22.0944 67.033 21.7944 69.7586 20.5939L114.636 0.827637" stroke="#303030" stroke-linecap="round"/>
<path d="M21.1846 57.3276H26.8242C28.3691 57.3276 29.6064 56.9551 30.5361 56.21C31.4727 55.458 31.9409 54.4053 31.9409 53.0518C31.9409 52.0742 31.7119 51.2881 31.2539 50.6934C30.7959 50.0986 30.2114 49.6987 29.5005 49.4937V49.4526C30.0747 49.2544 30.5532 48.8887 30.936 48.3555C31.3257 47.8223 31.5205 47.1421 31.5205 46.3149C31.5205 44.9819 31.0796 43.9976 30.1978 43.3618C29.3228 42.7192 28.0991 42.3979 26.5269 42.3979H21.1846V57.3276ZM23.9019 55.3179V50.5293H26.6807C27.542 50.5293 28.1743 50.7446 28.5776 51.1753C28.9878 51.606 29.1929 52.187 29.1929 52.9185C29.1929 53.6567 28.9878 54.2412 28.5776 54.6719C28.1743 55.1025 27.542 55.3179 26.6807 55.3179H23.9019ZM23.9019 48.6528V44.4282H26.3936C27.2549 44.4282 27.8735 44.6094 28.2495 44.9717C28.6255 45.3271 28.8135 45.8433 28.8135 46.52C28.8135 47.1899 28.6255 47.7129 28.2495 48.0889C27.8735 48.4648 27.2549 48.6528 26.3936 48.6528H23.9019ZM34.0327 53.3901C34.0327 54.8804 34.3608 55.9468 35.0171 56.5894C35.6802 57.2251 36.5415 57.543 37.6011 57.543C38.2915 57.543 38.9102 57.4097 39.457 57.1431C40.0107 56.8696 40.4517 56.5039 40.7798 56.0459H40.8311L40.8926 57.3276H43.4253V46.7456H40.749V53.9438C40.5439 54.3813 40.2466 54.7437 39.8569 55.0308C39.4673 55.3179 39.0229 55.4614 38.5239 55.4614C37.9565 55.4614 37.5122 55.3076 37.1909 55C36.8696 54.6924 36.709 54.1592 36.709 53.4004V46.7456H34.0327V53.3901ZM46.1323 57.3276H48.8188V46.7456H46.1323V57.3276ZM45.8965 43.6079C45.8965 44.0249 46.0332 44.377 46.3066 44.6641C46.5801 44.9443 46.9697 45.0845 47.4756 45.0845C47.9883 45.0845 48.3813 44.9443 48.6548 44.6641C48.9282 44.377 49.0649 44.0249 49.0649 43.6079C49.0649 43.1909 48.9282 42.8423 48.6548 42.562C48.3813 42.2817 47.9917 42.1416 47.4858 42.1416C46.9731 42.1416 46.5801 42.2817 46.3066 42.562C46.0332 42.8423 45.8965 43.1909 45.8965 43.6079ZM51.5771 57.3276H54.2534V41.7314H51.5771V57.3276ZM56.3657 52.2007C56.3657 53.7593 56.769 55.0376 57.5757 56.0356C58.3892 57.0337 59.4966 57.5327 60.8979 57.5327C61.5952 57.5327 62.2104 57.3892 62.7437 57.1021C63.2769 56.8081 63.6699 56.4458 63.9229 56.0151H63.9639L64.0254 57.3276H66.5479V41.7314H63.8818V47.894C63.6016 47.4839 63.2085 47.1558 62.7026 46.9097C62.1968 46.6636 61.5918 46.5405 60.8877 46.5405C59.5342 46.5405 58.4404 47.0396 57.6064 48.0376C56.7793 49.0288 56.3657 50.3071 56.3657 51.8726V52.2007ZM59.0933 52.2725V51.7905C59.0933 50.854 59.2983 50.085 59.7085 49.4834C60.1187 48.875 60.7373 48.5708 61.5645 48.5708C62.1455 48.5708 62.6309 48.7246 63.0205 49.0322C63.4102 49.333 63.6938 49.6919 63.8716 50.1089V53.9438C63.6938 54.3608 63.4067 54.7266 63.0103 55.041C62.6138 55.3486 62.1318 55.5024 61.5645 55.5024C60.7305 55.5024 60.1084 55.2017 59.6982 54.6001C59.2949 53.9917 59.0933 53.2158 59.0933 52.2725ZM74.2896 52.0571C74.2896 53.9575 74.8228 55.3589 75.8892 56.2612C76.9624 57.1636 78.3022 57.6147 79.9087 57.6147C81.5083 57.6147 82.8413 57.1636 83.9077 56.2612C84.9741 55.3589 85.5073 53.9575 85.5073 52.0571V42.3979H82.79V52.2109C82.79 53.3799 82.5269 54.2173 82.0005 54.7231C81.4741 55.2222 80.7803 55.4717 79.9189 55.4717C79.0508 55.4717 78.3535 55.2222 77.8271 54.7231C77.3076 54.2173 77.0479 53.3799 77.0479 52.2109V42.3979H74.2896V52.0571ZM88.2246 61.624H90.9009V56.1997C91.188 56.6099 91.5947 56.9346 92.1211 57.1738C92.6543 57.4131 93.2695 57.5327 93.9668 57.5327C95.2998 57.5327 96.373 57.0439 97.1865 56.0664C98 55.082 98.4067 53.79 98.4067 52.1904V51.8623C98.4067 50.2559 97.9966 48.9673 97.1763 47.9966C96.356 47.019 95.269 46.5303 93.9155 46.5303C93.2183 46.5303 92.5928 46.6738 92.0391 46.9609C91.4854 47.2412 91.0854 47.5933 90.8394 48.0171H90.7881L90.7266 46.7456H88.2246V61.624ZM90.9009 53.9233V50.1191C91.0786 49.709 91.3657 49.3501 91.7622 49.0425C92.1655 48.728 92.6577 48.5708 93.2388 48.5708C94.0728 48.5708 94.688 48.8613 95.0845 49.4424C95.481 50.0166 95.6792 50.7891 95.6792 51.7598V52.293C95.6792 53.2637 95.481 54.043 95.0845 54.6309C94.688 55.2119 94.0762 55.5024 93.249 55.5024C92.6816 55.5024 92.1895 55.3452 91.7725 55.0308C91.3623 54.7095 91.0718 54.3403 90.9009 53.9233Z" fill="#303030"/>
<defs>
<linearGradient id="paint0_linear_1_2554" x1="57.6362" y1="0.827637" x2="57.4677" y2="35.3286" gradientUnits="userSpaceOnUse">
<stop stop-color="#676767"/>
<stop offset="1" stop-color="#ECECEC"/>
</linearGradient>
</defs>
</svg>
