<svg width="130" height="35" viewBox="0 0 130 35" fill="none" xmlns="http://www.w3.org/2000/svg">
<path d="M28.3232 34.0695H7.22786C3.76119 34.0695 0.95166 31.2881 0.95166 27.8561V6.97175C0.95166 3.53974 3.76119 0.758301 7.22786 0.758301H28.3232C31.7898 0.758301 34.5993 3.53974 34.5993 6.97175V27.8561C34.5993 31.2881 31.7898 34.0695 28.3232 34.0695Z" fill="#303030"/>
<path d="M23.8381 17.7206C24.4381 18.4655 24.7428 19.3329 24.7428 20.3135C24.7428 21.7561 24.2571 22.8875 23.2857 23.6889C22.3143 24.4904 20.9238 24.9052 19.1142 24.9052H11.2095V8.0752H18.9238C20.6571 8.0752 21.9904 8.45234 22.9333 9.1972C23.8762 9.94206 24.3523 11.0075 24.3523 12.3841C24.3523 13.4023 24.0762 14.2415 23.5333 14.9204C22.9905 15.5992 22.2762 16.0329 21.3904 16.2404C22.4285 16.4855 23.238 16.9758 23.8381 17.7206ZM15.3142 14.9581H18.0095C19.4381 14.9581 20.1523 14.3546 20.1523 13.1478C20.1523 11.9409 19.419 11.3375 17.9619 11.3375H15.3142V14.9581ZM20.5333 19.7478C20.5333 19.1444 20.3333 18.6729 19.9333 18.3335C19.5333 17.9941 18.9619 17.8244 18.2285 17.8244H15.3238V21.6052H18.2571C19.7714 21.5958 20.5333 20.9829 20.5333 19.7478Z" fill="white"/>
<path d="M54.0954 24.9052L50.4192 18.5504H49.4859V24.9052H45.3716V8.0752H52.3906C53.7335 8.0752 54.8764 8.30148 55.8002 8.76349C56.7335 9.22549 57.4287 9.8572 57.8954 10.6586C58.3621 11.4601 58.5907 12.3746 58.5907 13.4118C58.5907 14.6375 58.2478 15.6746 57.5716 16.5326C56.8859 17.3906 55.9049 17.9752 54.6002 18.2958L58.6383 24.9147H54.0954V24.9052ZM49.4859 15.7689H52.0287C52.8478 15.7689 53.4478 15.5898 53.8287 15.2315C54.2097 14.8732 54.4097 14.3452 54.4097 13.6475C54.4097 12.9781 54.2097 12.4595 53.8192 12.0729C53.4287 11.6958 52.8287 11.4978 52.0287 11.4978H49.4859V15.7689Z" fill="#303030"/>
<path d="M77.2002 21.8408H70.8287L69.7716 24.9145H65.4478L71.6763 8.20703H76.4097L82.6383 24.9145H78.2668L77.2002 21.8408ZM76.143 18.7388L74.0287 12.5536L71.8859 18.7388H76.143Z" fill="#303030"/>
<path d="M105.334 24.9052H101.219L94.3433 14.5715V24.9052H90.229V8.0752H94.3433L101.219 18.5032V8.0752H105.334V24.9052Z" fill="#303030"/>
<path d="M128.401 20.8508C127.687 22.1236 126.658 23.1231 125.325 23.8396C123.982 24.5562 122.411 24.9145 120.601 24.9145H114.182V8.08447H120.601C122.43 8.08447 124.011 8.43333 125.335 9.13105C126.668 9.82876 127.687 10.8093 128.401 12.0822C129.115 13.3551 129.468 14.8071 129.468 16.4665C129.468 18.1071 129.106 19.5685 128.401 20.8508ZM123.973 20.0022C124.858 19.1631 125.306 17.9751 125.306 16.4571C125.306 14.9296 124.858 13.7511 123.973 12.9119C123.087 12.0728 121.839 11.6485 120.23 11.6485H118.287V21.2656H120.23C121.839 21.2656 123.087 20.8508 123.973 20.0022Z" fill="#303030"/>
</svg>
