<svg width="109" height="40" viewBox="0 0 109 40" fill="none" xmlns="http://www.w3.org/2000/svg">
<path d="M10.1615 31.8476C9.02154 31.8476 7.88154 31.8076 6.74154 31.7276C5.62154 31.6676 4.45154 31.5076 3.23154 31.2476V11.0876C4.19154 10.9076 5.24154 10.7776 6.38154 10.6976C7.52154 10.5976 8.58154 10.5476 9.56154 10.5476C10.8815 10.5476 12.0915 10.6476 13.1915 10.8476C14.3115 11.0276 15.2715 11.3476 16.0715 11.8076C16.8715 12.2676 17.4915 12.8776 17.9315 13.6376C18.3915 14.3776 18.6215 15.2976 18.6215 16.3976C18.6215 18.0576 17.8215 19.3676 16.2215 20.3276C17.5415 20.8276 18.4415 21.5076 18.9215 22.3676C19.4015 23.2276 19.6415 24.1976 19.6415 25.2776C19.6415 27.4576 18.8415 29.0976 17.2415 30.1976C15.6615 31.2976 13.3015 31.8476 10.1615 31.8476ZM7.79154 22.5176V27.8876C8.13154 27.9276 8.50154 27.9576 8.90154 27.9776C9.30154 27.9976 9.74154 28.0076 10.2215 28.0076C11.6215 28.0076 12.7515 27.8076 13.6115 27.4076C14.4715 27.0076 14.9015 26.2676 14.9015 25.1876C14.9015 24.2276 14.5415 23.5476 13.8215 23.1476C13.1015 22.7276 12.0715 22.5176 10.7315 22.5176H7.79154ZM7.79154 18.9476H10.0715C11.5115 18.9476 12.5415 18.7676 13.1615 18.4076C13.7815 18.0276 14.0915 17.4276 14.0915 16.6076C14.0915 15.7676 13.7715 15.1776 13.1315 14.8376C12.4915 14.4976 11.5515 14.3276 10.3115 14.3276C9.91154 14.3276 9.48154 14.3376 9.02154 14.3576C8.56154 14.3576 8.15154 14.3776 7.79154 14.4176V18.9476ZM27.5578 31.5776H23.0878V15.7976H27.5578V31.5776ZM27.9778 11.2376C27.9778 12.0576 27.7078 12.7076 27.1678 13.1876C26.6478 13.6476 26.0278 13.8776 25.3078 13.8776C24.5878 13.8776 23.9578 13.6476 23.4178 13.1876C22.8978 12.7076 22.6378 12.0576 22.6378 11.2376C22.6378 10.4176 22.8978 9.77764 23.4178 9.31764C23.9578 8.83764 24.5878 8.59764 25.3078 8.59764C26.0278 8.59764 26.6478 8.83764 27.1678 9.31764C27.7078 9.77764 27.9778 10.4176 27.9778 11.2376ZM31.6097 11.8676L36.0797 11.1476V15.7976H41.4497V19.5176H36.0797V25.0676C36.0797 26.0076 36.2397 26.7576 36.5597 27.3176C36.8997 27.8776 37.5697 28.1576 38.5697 28.1576C39.0497 28.1576 39.5397 28.1176 40.0397 28.0376C40.5597 27.9376 41.0297 27.8076 41.4497 27.6476L42.0797 31.1276C41.5397 31.3476 40.9397 31.5376 40.2797 31.6976C39.6197 31.8576 38.8097 31.9376 37.8497 31.9376C36.6297 31.9376 35.6197 31.7776 34.8197 31.4576C34.0197 31.1176 33.3797 30.6576 32.8997 30.0776C32.4197 29.4776 32.0797 28.7576 31.8797 27.9176C31.6997 27.0776 31.6097 26.1476 31.6097 25.1276V11.8676Z" fill="#303030"/>
<path d="M82.9615 28.4576C83.4015 28.4576 83.8215 28.4476 84.2215 28.4276C84.6215 28.4076 84.9415 28.3776 85.1815 28.3376V24.9476C85.0015 24.9076 84.7315 24.8676 84.3715 24.8276C84.0115 24.7876 83.6815 24.7676 83.3815 24.7676C82.9615 24.7676 82.5615 24.7976 82.1815 24.8576C81.8215 24.8976 81.5015 24.9876 81.2215 25.1276C80.9415 25.2676 80.7215 25.4576 80.5615 25.6976C80.4015 25.9376 80.3215 26.2376 80.3215 26.5976C80.3215 27.2976 80.5515 27.7876 81.0115 28.0676C81.4915 28.3276 82.1415 28.4576 82.9615 28.4576ZM82.6015 15.3776C83.9215 15.3776 85.0215 15.5276 85.9015 15.8276C86.7815 16.1276 87.4815 16.5576 88.0015 17.1176C88.5415 17.6776 88.9215 18.3576 89.1415 19.1576C89.3615 19.9576 89.4715 20.8476 89.4715 21.8276V31.1276C88.8315 31.2676 87.9415 31.4276 86.8015 31.6076C85.6615 31.8076 84.2815 31.9076 82.6615 31.9076C81.6415 31.9076 80.7115 31.8176 79.8715 31.6376C79.0515 31.4576 78.3415 31.1676 77.7415 30.7676C77.1415 30.3476 76.6815 29.8076 76.3615 29.1476C76.0415 28.4876 75.8815 27.6776 75.8815 26.7176C75.8815 25.7976 76.0615 25.0176 76.4215 24.3776C76.8015 23.7376 77.3015 23.2276 77.9215 22.8476C78.5415 22.4676 79.2515 22.1976 80.0515 22.0376C80.8515 21.8576 81.6815 21.7676 82.5415 21.7676C83.1215 21.7676 83.6315 21.7976 84.0715 21.8576C84.5315 21.8976 84.9015 21.9576 85.1815 22.0376V21.6176C85.1815 20.8576 84.9515 20.2476 84.4915 19.7876C84.0315 19.3276 83.2315 19.0976 82.0915 19.0976C81.3315 19.0976 80.5815 19.1576 79.8415 19.2776C79.1015 19.3776 78.4615 19.5276 77.9215 19.7276L77.3515 16.1276C77.6115 16.0476 77.9315 15.9676 78.3115 15.8876C78.7115 15.7876 79.1415 15.7076 79.6015 15.6476C80.0615 15.5676 80.5415 15.5076 81.0415 15.4676C81.5615 15.4076 82.0815 15.3776 82.6015 15.3776ZM99.7836 20.5976L102.904 15.7976H107.524L102.124 23.3876C103.324 24.8876 104.414 26.3476 105.394 27.7676C106.374 29.1876 107.154 30.4576 107.734 31.5776H102.934C102.774 31.2776 102.574 30.9076 102.334 30.4676C102.094 30.0076 101.824 29.5376 101.524 29.0576C101.224 28.5576 100.904 28.0676 100.564 27.5876C100.244 27.0876 99.9236 26.6376 99.6036 26.2376C99.3036 26.6176 98.9936 27.0376 98.6736 27.4976C98.3736 27.9576 98.0836 28.4276 97.8036 28.9076C97.5236 29.3676 97.2436 29.8276 96.9636 30.2876C96.7036 30.7476 96.4736 31.1776 96.2736 31.5776H91.7136C91.9536 31.0776 92.2836 30.4876 92.7036 29.8076C93.1236 29.1276 93.5736 28.4276 94.0536 27.7076C94.5536 26.9676 95.0736 26.2376 95.6136 25.5176C96.1536 24.7776 96.6836 24.0876 97.2036 23.4476C96.3036 22.1876 95.4036 20.9176 94.5036 19.6376C93.6036 18.3376 92.7136 17.0576 91.8336 15.7976H96.6636L99.7836 20.5976Z" fill="#303030"/>
<path d="M53.3315 11.5776L56.2672 12.1894L58.9155 13.9649L61.0172 16.7303L62.3666 20.2149L62.8315 24.0776L62.3666 27.9403L61.0172 31.425L58.9155 34.1903L56.2672 35.9658L53.3315 36.5776L50.3959 35.9658L47.7476 34.1903L45.6459 31.425L44.2965 27.9403L43.8315 24.0776L44.2965 20.2149L45.6459 16.7303L47.7476 13.9649L50.3959 12.1894L53.3315 11.5776Z" fill="#303030"/>
<path d="M63.3315 11.5776L66.2672 12.1894L68.9155 13.9649L71.0172 16.7303L72.3666 20.2149L72.8315 24.0776L72.3666 27.9403L71.0172 31.425L68.9155 34.1903L66.2672 35.9658L63.3315 36.5776L60.3959 35.9658L57.7476 34.1903L55.6459 31.425L54.2965 27.9403L53.8315 24.0776L54.2965 20.2149L55.6459 16.7303L57.7476 13.9649L60.3959 12.1894L63.3315 11.5776Z" fill="#303030"/>
</svg>
