<svg width="114" height="36" viewBox="0 0 114 36" fill="none" xmlns="http://www.w3.org/2000/svg">
<path d="M32.5962 17.106C32.6577 16.5083 32.6885 15.8228 32.6885 15.0493C32.6885 13.8188 32.6226 12.2896 32.4907 10.4614C34.1343 10.5142 36.916 10.5405 40.8359 10.5405C44.7559 10.5405 47.5288 10.5142 49.1548 10.4614C49.0229 12.2896 48.957 13.8188 48.957 15.0493C48.957 15.8228 48.9878 16.5083 49.0493 17.106H48.4297C48.1309 15.603 47.7661 14.4165 47.3354 13.5464C46.9048 12.6675 46.3862 12.0391 45.7798 11.6611C45.1821 11.2744 44.4526 11.0811 43.5913 11.0811H42.9717V26.5059C42.9717 27.2529 43.0464 27.7979 43.1958 28.1406C43.354 28.4834 43.6265 28.7163 44.0132 28.8394C44.4087 28.9624 45.0239 29.0283 45.8589 29.0371V29.5776C43.5913 29.5249 41.8818 29.4985 40.7305 29.4985C39.5967 29.4985 37.9487 29.5249 35.7866 29.5776V29.0371C36.6304 29.0283 37.2456 28.9624 37.6323 28.8394C38.0278 28.7163 38.3003 28.4834 38.4497 28.1406C38.5991 27.7979 38.6738 27.2529 38.6738 26.5059V11.0811H38.0806C37.2104 11.0811 36.4722 11.27 35.8657 11.6479C35.2681 12.0259 34.7539 12.6543 34.3232 13.5332C33.8926 14.4033 33.5234 15.5942 33.2158 17.106H32.5962ZM57.2627 18.187C57.2627 17.4399 57.0825 16.8511 56.7222 16.4204C56.3706 15.9897 55.8169 15.7744 55.061 15.7744C54.7095 15.7744 54.3579 15.8315 54.0063 15.9458C53.6548 16.0513 53.3647 16.2139 53.1362 16.4336C53.6372 16.6006 54.0283 16.8643 54.3096 17.2246C54.5908 17.5762 54.7314 18.02 54.7314 18.5562C54.7314 18.9253 54.6392 19.2593 54.4546 19.5581C54.2788 19.8481 54.0239 20.0811 53.6899 20.2568C53.356 20.4238 52.9736 20.5073 52.543 20.5073C51.9629 20.5073 51.4971 20.3096 51.1455 19.9141C50.8027 19.5186 50.6313 19.022 50.6313 18.4243C50.6313 17.4927 51.1323 16.7368 52.1343 16.1567C53.2329 15.5503 54.604 15.2471 56.2476 15.2471C58.0933 15.2471 59.4072 15.6514 60.1895 16.46C60.5674 16.8379 60.8223 17.3081 60.9541 17.8706C61.0859 18.4331 61.1519 19.2197 61.1519 20.2305V27.5737C61.1519 28.0132 61.1914 28.3252 61.2705 28.5098C61.3584 28.6855 61.5078 28.7734 61.7188 28.7734C62.0088 28.7734 62.3428 28.6196 62.7207 28.312L62.9976 28.7734C62.5845 29.1162 62.1362 29.3667 61.6528 29.5249C61.1694 29.6831 60.5894 29.7622 59.9126 29.7622C58.9985 29.7622 58.3394 29.5601 57.9351 29.1558C57.5308 28.7515 57.3286 28.2241 57.3286 27.5737C56.8892 28.3032 56.3135 28.8525 55.6016 29.2217C54.8896 29.582 54.1294 29.7622 53.3208 29.7622C52.2925 29.7622 51.4663 29.4941 50.8423 28.958C50.2271 28.4131 49.9194 27.6572 49.9194 26.6904C49.9194 25.75 50.2271 24.9722 50.8423 24.3569C51.4575 23.7417 52.4111 23.1968 53.7031 22.7222C53.8438 22.6694 54.3008 22.498 55.0742 22.208C55.8477 21.9092 56.4058 21.606 56.7485 21.2983C57.0913 20.9907 57.2627 20.6523 57.2627 20.2832V18.187ZM57.2627 21.3906C57.1484 21.584 56.9595 21.7861 56.6958 21.9971C56.4409 22.1992 56.0718 22.4497 55.5884 22.7485C55.0171 23.144 54.5688 23.5923 54.2437 24.0933C53.9185 24.5854 53.7559 25.2007 53.7559 25.939C53.7559 26.6421 53.9097 27.1694 54.2173 27.521C54.5249 27.8638 54.9292 28.0352 55.4302 28.0352C56.1421 28.0352 56.7529 27.666 57.2627 26.9277V21.3906ZM69.4048 17.8311C69.7476 17.0664 70.2397 16.4468 70.8813 15.9722C71.5317 15.4888 72.2656 15.2471 73.083 15.2471C73.6279 15.2471 74.085 15.3657 74.4541 15.603C74.8232 15.8403 75.0957 16.1479 75.2715 16.5259C75.4473 16.895 75.5352 17.2949 75.5352 17.7256C75.5352 18.3936 75.3418 18.9385 74.9551 19.3604C74.5684 19.7822 74.0586 19.9932 73.4258 19.9932C72.8105 19.9932 72.3228 19.8394 71.9624 19.5317C71.6108 19.2153 71.4351 18.7935 71.4351 18.2661C71.4351 17.4048 71.8306 16.7017 72.6216 16.1567C72.5073 16.1304 72.3975 16.1172 72.292 16.1172C72.1689 16.1172 72.0283 16.1392 71.8701 16.1831C71.4131 16.2534 70.9956 16.4731 70.6177 16.8423C70.2397 17.2026 69.9409 17.6377 69.7212 18.1475C69.5103 18.6572 69.4048 19.1538 69.4048 19.6372V26.7959C69.4048 27.6309 69.6069 28.2109 70.0112 28.5361C70.4155 28.8525 71.0615 29.0107 71.9492 29.0107V29.5776C69.6992 29.5073 68.2666 29.4722 67.6514 29.4722C67.0801 29.4722 65.7925 29.5073 63.7886 29.5776V29.0107C64.2192 29.0107 64.5576 28.9536 64.8037 28.8394C65.0586 28.7251 65.2388 28.5273 65.3442 28.2461C65.4585 27.9648 65.5156 27.5737 65.5156 27.0728V18.5562C65.5156 17.7212 65.3882 17.1191 65.1333 16.75C64.8784 16.3721 64.4302 16.1831 63.7886 16.1831V15.6162C64.3599 15.6689 64.918 15.6953 65.4629 15.6953C67.0537 15.6953 68.3677 15.5723 69.4048 15.3262V17.8311ZM86.438 26.1235C87.519 26.1235 88.3936 26.3521 89.0615 26.8091C89.7383 27.2573 90.0767 27.9912 90.0767 29.0107C90.0767 29.9336 89.7866 30.8257 89.2065 31.687C88.6265 32.5571 87.7476 33.269 86.5698 33.8228C85.3921 34.3765 83.9551 34.6533 82.2588 34.6533C80.9404 34.6533 79.833 34.5479 78.9365 34.3369C78.0488 34.1348 77.3853 33.8579 76.9458 33.5063C76.5063 33.1548 76.2866 32.7549 76.2866 32.3066C76.2866 31.8232 76.4668 31.4629 76.8271 31.2256C77.1963 30.9883 77.7939 30.7378 78.6201 30.4741C79.4463 30.2104 80.0308 29.9556 80.3735 29.7095H79.7407C78.9937 29.7095 78.3037 29.5293 77.6709 29.1689C77.0381 28.8086 76.7217 28.1538 76.7217 27.2046C76.7217 26.686 76.8271 26.2202 77.0381 25.8071C77.2578 25.3853 77.6138 24.9854 78.106 24.6074C78.6069 24.2207 79.2793 23.8252 80.123 23.4209C79.2002 23.1045 78.4795 22.6255 77.9609 21.9839C77.4424 21.3335 77.1831 20.5161 77.1831 19.5317C77.1831 18.1079 77.7104 17.04 78.7651 16.3281C79.8286 15.6074 81.2349 15.2471 82.9839 15.2471C83.7046 15.2471 84.3726 15.3086 84.9878 15.4316C84.9614 14.9746 84.9966 14.522 85.0933 14.0737C85.1812 13.3267 85.436 12.729 85.8579 12.2808C86.2798 11.8237 86.8774 11.5952 87.6509 11.5952C88.2222 11.5952 88.6924 11.749 89.0615 12.0566C89.4395 12.3555 89.6284 12.751 89.6284 13.2432C89.6284 13.7002 89.4482 14.0781 89.0879 14.377C88.7363 14.667 88.2925 14.812 87.7563 14.812C87.2114 14.812 86.7852 14.6846 86.4775 14.4297C86.1699 14.1748 85.9326 13.7969 85.7656 13.2959C85.5723 13.6211 85.436 14.0825 85.3569 14.6802C85.3481 14.7681 85.3438 14.8999 85.3438 15.0757C85.3438 15.269 85.3481 15.4141 85.3569 15.5107C86.4292 15.7832 87.2686 16.2578 87.875 16.9346C88.4814 17.6025 88.7847 18.4683 88.7847 19.5317C88.7847 20.4897 88.5342 21.2896 88.0332 21.9312C87.541 22.5728 86.8599 23.0518 85.9897 23.3682C85.1196 23.6758 84.1177 23.8296 82.9839 23.8296C82.1313 23.8296 81.3535 23.7417 80.6504 23.5659C80.1318 23.8647 79.7451 24.1372 79.4902 24.3833C79.2441 24.6294 79.1211 24.9106 79.1211 25.2271C79.1211 25.8247 79.4814 26.1235 80.2021 26.1235H86.438ZM82.9839 15.7217C82.395 15.7217 81.9468 16.0117 81.6392 16.5918C81.3315 17.1719 81.1777 18.1519 81.1777 19.5317C81.1777 20.9116 81.3315 21.8916 81.6392 22.4717C81.9468 23.0518 82.395 23.3418 82.9839 23.3418C83.5815 23.3418 84.0298 23.0518 84.3286 22.4717C84.6362 21.8916 84.79 20.9116 84.79 19.5317C84.79 18.1519 84.6362 17.1719 84.3286 16.5918C84.0298 16.0117 83.5815 15.7217 82.9839 15.7217ZM80.8877 29.7095C80.5889 29.9907 80.356 30.3379 80.189 30.751C80.0308 31.1641 79.9517 31.5376 79.9517 31.8716C79.9517 32.6187 80.2329 33.1899 80.7954 33.5854C81.3667 33.9897 82.0962 34.1919 82.9839 34.1919C83.7134 34.1919 84.3901 34.0557 85.0142 33.7832C85.647 33.5195 86.1479 33.1328 86.5171 32.623C86.895 32.1133 87.084 31.52 87.084 30.8433C87.084 30.4565 86.9697 30.1709 86.7412 29.9863C86.5127 29.8018 86.104 29.7095 85.5151 29.7095H80.8877ZM95.5215 21.2324C95.4951 21.4961 95.4819 21.918 95.4819 22.498C95.4819 23.6934 95.6489 24.6865 95.9829 25.4775C96.3169 26.2598 96.7476 26.8354 97.2749 27.2046C97.811 27.5649 98.3823 27.7451 98.9888 27.7451C100.474 27.7451 101.665 27.0244 102.562 25.583L103.036 25.7412C102.808 26.4795 102.452 27.1694 101.968 27.811C101.494 28.4438 100.887 28.9624 100.149 29.3667C99.4194 29.7622 98.5845 29.96 97.644 29.96C96.4048 29.96 95.3149 29.6963 94.3745 29.1689C93.4429 28.6416 92.7134 27.8418 92.186 26.7695C91.6675 25.6885 91.4082 24.3481 91.4082 22.7485C91.4082 21.1138 91.6895 19.7383 92.252 18.6221C92.8145 17.4971 93.5923 16.6533 94.5854 16.0908C95.5786 15.5283 96.7256 15.2471 98.0264 15.2471C101.41 15.2471 103.102 17.2422 103.102 21.2324H95.5215ZM99.7007 20.7183C99.7271 19.312 99.582 18.1431 99.2656 17.2114C98.958 16.2798 98.4878 15.814 97.855 15.814C97.2134 15.814 96.6772 16.2139 96.2466 17.0137C95.8247 17.8047 95.5654 19.0396 95.4688 20.7183H99.7007ZM113.346 15.6426V16.1831H110.155V27.0728C110.155 27.6089 110.252 27.9912 110.445 28.2197C110.639 28.4395 110.938 28.5493 111.342 28.5493C112.106 28.5493 112.717 28.0088 113.174 26.9277L113.636 27.1782C112.959 29.0327 111.729 29.96 109.944 29.96C108.758 29.96 107.857 29.6523 107.242 29.0371C106.864 28.668 106.604 28.2021 106.464 27.6396C106.332 27.0684 106.266 26.2817 106.266 25.2798V16.1831H103.999V15.6426H106.266V12.0566C107.751 12.0566 109.048 11.7666 110.155 11.1865V15.6426H113.346Z" fill="#303030"/>
<rect x="0.831543" y="5.57764" width="26" height="26" rx="5" fill="#303030"/>
<circle cx="13.8315" cy="18.5776" r="5" fill="#303030"/>
<path d="M13.8315 12.9776V11.5776M13.8315 25.5776V24.1776M19.4315 18.5776H20.8315M6.83154 18.5776H8.23154M13.8315 13.5376C12.8347 13.5376 11.8603 13.8332 11.0315 14.387C10.2026 14.9408 9.55666 15.728 9.17519 16.6489C8.79372 17.5699 8.69392 18.5832 8.88839 19.5609C9.08285 20.5386 9.56287 21.4366 10.2677 22.1415C10.9726 22.8463 11.8706 23.3263 12.8483 23.5208C13.826 23.7153 14.8393 23.6155 15.7603 23.234C16.6812 22.8525 17.4683 22.2065 18.0221 21.3777C18.576 20.5489 18.8715 19.5745 18.8715 18.5776C18.8715 17.2409 18.3405 15.959 17.3954 15.0138C16.4502 14.0686 15.1682 13.5376 13.8315 13.5376Z" stroke="white" stroke-width="2" stroke-linecap="square" stroke-linejoin="round"/>
</svg>
