<svg width="38" height="23" viewBox="0 0 38 23" fill="none" xmlns="http://www.w3.org/2000/svg">
<path d="M37.9795 0.751953C37.4229 3.125 36.8516 5.61523 36.2656 8.22266C35.709 10.8301 35.1963 13.3936 34.7275 15.9131C34.2588 18.4033 33.8633 20.6885 33.541 22.7686H21.2363L20.6211 21.8018C21.1484 19.6631 21.8223 17.3926 22.6426 14.9902C23.4922 12.5586 24.4004 10.127 25.3672 7.69531C26.3633 5.23438 27.3594 2.91992 28.3555 0.751953H37.9795ZM17.457 0.751953C16.9004 3.125 16.3291 5.61523 15.7432 8.22266C15.1865 10.8301 14.6738 13.3936 14.2051 15.9131C13.7363 18.4033 13.3408 20.6885 13.0186 22.7686H0.713867L0.0986328 21.8018C0.625977 19.6631 1.2998 17.3926 2.12012 14.9902C2.96973 12.5586 3.87793 10.127 4.84473 7.69531C5.84082 5.23438 6.83691 2.91992 7.83301 0.751953H17.457Z" fill="#303030"/>
</svg>
