<svg width="18" height="18" viewBox="0 0 18 18" fill="none" xmlns="http://www.w3.org/2000/svg">
<path fill-rule="evenodd" clip-rule="evenodd" d="M3.41381 14.6523C5.93345 17.1723 9.66444 17.7167 12.7177 16.3047C13.1684 16.1232 13.5379 15.9765 13.8893 15.9765C14.8678 15.9823 16.0858 16.9311 16.7188 16.2989C17.3518 15.6658 16.4023 14.4468 16.4023 13.4624C16.4023 13.1111 16.5431 12.7481 16.7246 12.2965C18.1373 9.24376 17.5921 5.51153 15.0724 2.99244C11.856 -0.225205 6.63027 -0.225205 3.41381 2.99161C0.191551 6.21422 0.197351 11.4355 3.41381 14.6523Z" stroke="#949494" stroke-linecap="round" stroke-linejoin="round"/>
<path opacity="0.4" d="M5.99609 9.16406H5.98825" stroke="#949494" stroke-linecap="round" stroke-linejoin="round"/>
<path opacity="0.4" d="M9.30078 9.16406H9.29294" stroke="#949494" stroke-linecap="round" stroke-linejoin="round"/>
<path opacity="0.4" d="M12.6074 9.16406H12.5996" stroke="#949494" stroke-linecap="round" stroke-linejoin="round"/>
</svg>
